<svg xmlns="http://www.w3.org/2000/svg" viewBox="164.0 71.0 997.0 773.0" width="100%" height="auto" style="background-color: #f3f4f6;">
  <style>
    .sector:hover { fill-opacity: 0.5; cursor: pointer; }
    .seat:hover { r: 6; cursor: pointer; stroke: #fff; stroke-width: 1; }
  </style>
  <g id="background">
  </g>
  <g id="sectors">
    <polygon points="276 201,216 274,237 275,286 212" fill="rgba(0,191,255,0.2)" stroke="#00BFFF" stroke-width="1" class="sector" data-label="350381:FRISA PLATEIA SUPERIOR" />
    <polygon points="519 198,508 211,554 273,578 270" fill="rgba(0,191,255,0.2)" stroke="#00BFFF" stroke-width="1" class="sector" data-label="350381:FRISA PLATEIA SUPERIOR" />
    <polygon points="285 143,512 141,518 152,508 161,281 162,276 154" fill="rgba(0,191,255,0.2)" stroke="#00BFFF" stroke-width="1" class="sector" data-label="350381:BALCAO A" />
    <polygon points="279 196,286 207,509 206,515 195,509 178,497 175,299 177,290 180" fill="rgba(0,191,255,0.2)" stroke="#00BFFF" stroke-width="1" class="sector" data-label="350381:PLATEIA SUPERIOR" />
    <polygon points="296 124,499 121,511 139,285 142" fill="rgba(0,191,255,0.2)" stroke="#00BFFF" stroke-width="1" class="sector" data-label="350381:BALCAO B" />
    <polygon points="214 207,237 211,284 166,274 157" fill="rgba(0,191,255,0.2)" stroke="#00BFFF" stroke-width="1" class="sector" data-label="350381:FRISA BALCAO" />
    <polygon points="524 156,509 163,554 206,579 204" fill="rgba(0,191,255,0.2)" stroke="#00BFFF" stroke-width="1" class="sector" data-label="350381:FRISA BALCAO" />
    <polygon points="305 232,255 380,537 380,490 231" fill="rgba(0,191,255,0.2)" stroke="#00BFFF" stroke-width="1" class="sector" data-label="350381:PLATEIA VIP" />
  </g>
  <g id="seats">
    <circle cx="749" cy="325" r="4" fill="#ef4444" class="seat" data-code="A1" data-status="UNAVAILABLE" />
    <circle cx="869" cy="325" r="4" fill="#ef4444" class="seat" data-code="A10" data-status="UNAVAILABLE" />
    <circle cx="629" cy="325" r="4" fill="#ef4444" class="seat" data-code="A11" data-status="UNAVAILABLE" />
    <circle cx="893" cy="325" r="4" fill="#ef4444" class="seat" data-code="A12" data-status="UNAVAILABLE" />
    <circle cx="605" cy="325" r="4" fill="#ef4444" class="seat" data-code="A13" data-status="UNAVAILABLE" />
    <circle cx="917" cy="325" r="4" fill="#ef4444" class="seat" data-code="A14" data-status="UNAVAILABLE" />
    <circle cx="581" cy="325" r="4" fill="#ef4444" class="seat" data-code="A15" data-status="UNAVAILABLE" />
    <circle cx="980" cy="325" r="4" fill="#ef4444" class="seat" data-code="A16" data-status="UNAVAILABLE" />
    <circle cx="515" cy="326" r="4" fill="#ef4444" class="seat" data-code="A17" data-status="UNAVAILABLE" />
    <circle cx="1004" cy="325" r="4" fill="#ef4444" class="seat" data-code="A18" data-status="UNAVAILABLE" />
    <circle cx="491" cy="326" r="4" fill="#ef4444" class="seat" data-code="A19" data-status="UNAVAILABLE" />
    <circle cx="773" cy="325" r="4" fill="#ef4444" class="seat" data-code="A2" data-status="UNAVAILABLE" />
    <circle cx="1028" cy="325" r="4" fill="#ef4444" class="seat" data-code="A20" data-status="UNAVAILABLE" />
    <circle cx="467" cy="326" r="4" fill="#ef4444" class="seat" data-code="A21" data-status="UNAVAILABLE" />
    <circle cx="1052" cy="325" r="4" fill="#ef4444" class="seat" data-code="A22" data-status="UNAVAILABLE" />
    <circle cx="443" cy="326" r="4" fill="#ef4444" class="seat" data-code="A23" data-status="UNAVAILABLE" />
    <circle cx="1076" cy="325" r="4" fill="#ef4444" class="seat" data-code="A24" data-status="UNAVAILABLE" />
    <circle cx="419" cy="326" r="4" fill="#ef4444" class="seat" data-code="A25" data-status="UNAVAILABLE" />
    <circle cx="1100" cy="325" r="4" fill="#ef4444" class="seat" data-code="A26" data-status="UNAVAILABLE" />
    <circle cx="395" cy="326" r="4" fill="#ef4444" class="seat" data-code="A27" data-status="UNAVAILABLE" />
    <circle cx="725" cy="325" r="4" fill="#ef4444" class="seat" data-code="A3" data-status="UNAVAILABLE" />
    <circle cx="797" cy="325" r="4" fill="#ef4444" class="seat" data-code="A4" data-status="UNAVAILABLE" />
    <circle cx="701" cy="325" r="4" fill="#ef4444" class="seat" data-code="A5" data-status="UNAVAILABLE" />
    <circle cx="821" cy="325" r="4" fill="#ef4444" class="seat" data-code="A6" data-status="UNAVAILABLE" />
    <circle cx="677" cy="325" r="4" fill="#ef4444" class="seat" data-code="A7" data-status="UNAVAILABLE" />
    <circle cx="845" cy="325" r="4" fill="#ef4444" class="seat" data-code="A8" data-status="UNAVAILABLE" />
    <circle cx="653" cy="325" r="4" fill="#ef4444" class="seat" data-code="A9" data-status="UNAVAILABLE" />
    <circle cx="749" cy="301" r="4" fill="#ef4444" class="seat" data-code="AA1" data-status="UNAVAILABLE" />
    <circle cx="869" cy="301" r="4" fill="#ef4444" class="seat" data-code="AA10" data-status="UNAVAILABLE" />
    <circle cx="629" cy="301" r="4" fill="#ef4444" class="seat" data-code="AA11" data-status="UNAVAILABLE" />
    <circle cx="893" cy="301" r="4" fill="#ef4444" class="seat" data-code="AA12" data-status="UNAVAILABLE" />
    <circle cx="605" cy="301" r="4" fill="#ef4444" class="seat" data-code="AA13" data-status="UNAVAILABLE" />
    <circle cx="917" cy="301" r="4" fill="#ef4444" class="seat" data-code="AA14" data-status="UNAVAILABLE" />
    <circle cx="581" cy="301" r="4" fill="#ef4444" class="seat" data-code="AA15" data-status="UNAVAILABLE" />
    <circle cx="980" cy="301" r="4" fill="#ef4444" class="seat" data-code="AA16" data-status="UNAVAILABLE" />
    <circle cx="515" cy="302" r="4" fill="#ef4444" class="seat" data-code="AA17" data-status="UNAVAILABLE" />
    <circle cx="1004" cy="301" r="4" fill="#ef4444" class="seat" data-code="AA18" data-status="UNAVAILABLE" />
    <circle cx="491" cy="302" r="4" fill="#ef4444" class="seat" data-code="AA19" data-status="UNAVAILABLE" />
    <circle cx="773" cy="301" r="4" fill="#ef4444" class="seat" data-code="AA2" data-status="UNAVAILABLE" />
    <circle cx="1028" cy="301" r="4" fill="#ef4444" class="seat" data-code="AA20" data-status="UNAVAILABLE" />
    <circle cx="467" cy="302" r="4" fill="#ef4444" class="seat" data-code="AA21" data-status="UNAVAILABLE" />
    <circle cx="1052" cy="301" r="4" fill="#ef4444" class="seat" data-code="AA22" data-status="UNAVAILABLE" />
    <circle cx="443" cy="302" r="4" fill="#ef4444" class="seat" data-code="AA23" data-status="UNAVAILABLE" />
    <circle cx="1076" cy="301" r="4" fill="#10b981" class="seat" data-code="AA24" data-status="AVAILABLE" />
    <circle cx="419" cy="302" r="4" fill="#ef4444" class="seat" data-code="AA25" data-status="UNAVAILABLE" />
    <circle cx="725" cy="301" r="4" fill="#ef4444" class="seat" data-code="AA3" data-status="UNAVAILABLE" />
    <circle cx="797" cy="301" r="4" fill="#ef4444" class="seat" data-code="AA4" data-status="UNAVAILABLE" />
    <circle cx="701" cy="301" r="4" fill="#ef4444" class="seat" data-code="AA5" data-status="UNAVAILABLE" />
    <circle cx="821" cy="301" r="4" fill="#ef4444" class="seat" data-code="AA6" data-status="UNAVAILABLE" />
    <circle cx="677" cy="301" r="4" fill="#ef4444" class="seat" data-code="AA7" data-status="UNAVAILABLE" />
    <circle cx="845" cy="301" r="4" fill="#ef4444" class="seat" data-code="AA8" data-status="UNAVAILABLE" />
    <circle cx="653" cy="301" r="4" fill="#ef4444" class="seat" data-code="AA9" data-status="UNAVAILABLE" />
    <circle cx="749" cy="349" r="4" fill="#ef4444" class="seat" data-code="B1" data-status="UNAVAILABLE" />
    <circle cx="869" cy="349" r="4" fill="#ef4444" class="seat" data-code="B10" data-status="UNAVAILABLE" />
    <circle cx="629" cy="349" r="4" fill="#ef4444" class="seat" data-code="B11" data-status="UNAVAILABLE" />
    <circle cx="893" cy="349" r="4" fill="#ef4444" class="seat" data-code="B12" data-status="UNAVAILABLE" />
    <circle cx="605" cy="349" r="4" fill="#ef4444" class="seat" data-code="B13" data-status="UNAVAILABLE" />
    <circle cx="917" cy="349" r="4" fill="#ef4444" class="seat" data-code="B14" data-status="UNAVAILABLE" />
    <circle cx="581" cy="349" r="4" fill="#ef4444" class="seat" data-code="B15" data-status="UNAVAILABLE" />
    <circle cx="980" cy="349" r="4" fill="#ef4444" class="seat" data-code="B16" data-status="UNAVAILABLE" />
    <circle cx="515" cy="350" r="4" fill="#ef4444" class="seat" data-code="B17" data-status="UNAVAILABLE" />
    <circle cx="1004" cy="349" r="4" fill="#ef4444" class="seat" data-code="B18" data-status="UNAVAILABLE" />
    <circle cx="491" cy="350" r="4" fill="#ef4444" class="seat" data-code="B19" data-status="UNAVAILABLE" />
    <circle cx="773" cy="349" r="4" fill="#ef4444" class="seat" data-code="B2" data-status="UNAVAILABLE" />
    <circle cx="1028" cy="349" r="4" fill="#ef4444" class="seat" data-code="B20" data-status="UNAVAILABLE" />
    <circle cx="467" cy="350" r="4" fill="#ef4444" class="seat" data-code="B21" data-status="UNAVAILABLE" />
    <circle cx="1052" cy="349" r="4" fill="#ef4444" class="seat" data-code="B22" data-status="UNAVAILABLE" />
    <circle cx="443" cy="350" r="4" fill="#ef4444" class="seat" data-code="B23" data-status="UNAVAILABLE" />
    <circle cx="1076" cy="349" r="4" fill="#10b981" class="seat" data-code="B24" data-status="AVAILABLE" />
    <circle cx="419" cy="350" r="4" fill="#ef4444" class="seat" data-code="B25" data-status="UNAVAILABLE" />
    <circle cx="1100" cy="349" r="4" fill="#10b981" class="seat" data-code="B26" data-status="AVAILABLE" />
    <circle cx="395" cy="350" r="4" fill="#ef4444" class="seat" data-code="B27" data-status="UNAVAILABLE" />
    <circle cx="725" cy="349" r="4" fill="#ef4444" class="seat" data-code="B3" data-status="UNAVAILABLE" />
    <circle cx="797" cy="349" r="4" fill="#ef4444" class="seat" data-code="B4" data-status="UNAVAILABLE" />
    <circle cx="701" cy="349" r="4" fill="#ef4444" class="seat" data-code="B5" data-status="UNAVAILABLE" />
    <circle cx="821" cy="349" r="4" fill="#ef4444" class="seat" data-code="B6" data-status="UNAVAILABLE" />
    <circle cx="677" cy="349" r="4" fill="#ef4444" class="seat" data-code="B7" data-status="UNAVAILABLE" />
    <circle cx="845" cy="349" r="4" fill="#ef4444" class="seat" data-code="B8" data-status="UNAVAILABLE" />
    <circle cx="653" cy="349" r="4" fill="#ef4444" class="seat" data-code="B9" data-status="UNAVAILABLE" />
    <circle cx="749" cy="373" r="4" fill="#ef4444" class="seat" data-code="C1" data-status="UNAVAILABLE" />
    <circle cx="869" cy="373" r="4" fill="#ef4444" class="seat" data-code="C10" data-status="UNAVAILABLE" />
    <circle cx="629" cy="373" r="4" fill="#ef4444" class="seat" data-code="C11" data-status="UNAVAILABLE" />
    <circle cx="893" cy="373" r="4" fill="#ef4444" class="seat" data-code="C12" data-status="UNAVAILABLE" />
    <circle cx="605" cy="373" r="4" fill="#ef4444" class="seat" data-code="C13" data-status="UNAVAILABLE" />
    <circle cx="917" cy="373" r="4" fill="#ef4444" class="seat" data-code="C14" data-status="UNAVAILABLE" />
    <circle cx="581" cy="373" r="4" fill="#ef4444" class="seat" data-code="C15" data-status="UNAVAILABLE" />
    <circle cx="980" cy="373" r="4" fill="#ef4444" class="seat" data-code="C16" data-status="UNAVAILABLE" />
    <circle cx="515" cy="374" r="4" fill="#ef4444" class="seat" data-code="C17" data-status="UNAVAILABLE" />
    <circle cx="1004" cy="373" r="4" fill="#ef4444" class="seat" data-code="C18" data-status="UNAVAILABLE" />
    <circle cx="491" cy="374" r="4" fill="#ef4444" class="seat" data-code="C19" data-status="UNAVAILABLE" />
    <circle cx="773" cy="373" r="4" fill="#ef4444" class="seat" data-code="C2" data-status="UNAVAILABLE" />
    <circle cx="1028" cy="373" r="4" fill="#ef4444" class="seat" data-code="C20" data-status="UNAVAILABLE" />
    <circle cx="467" cy="374" r="4" fill="#ef4444" class="seat" data-code="C21" data-status="UNAVAILABLE" />
    <circle cx="1052" cy="373" r="4" fill="#ef4444" class="seat" data-code="C22" data-status="UNAVAILABLE" />
    <circle cx="443" cy="374" r="4" fill="#ef4444" class="seat" data-code="C23" data-status="UNAVAILABLE" />
    <circle cx="1076" cy="373" r="4" fill="#ef4444" class="seat" data-code="C24" data-status="UNAVAILABLE" />
    <circle cx="419" cy="374" r="4" fill="#ef4444" class="seat" data-code="C25" data-status="UNAVAILABLE" />
    <circle cx="1100" cy="373" r="4" fill="#ef4444" class="seat" data-code="C26" data-status="UNAVAILABLE" />
    <circle cx="395" cy="374" r="4" fill="#ef4444" class="seat" data-code="C27" data-status="UNAVAILABLE" />
    <circle cx="725" cy="373" r="4" fill="#ef4444" class="seat" data-code="C3" data-status="UNAVAILABLE" />
    <circle cx="797" cy="373" r="4" fill="#ef4444" class="seat" data-code="C4" data-status="UNAVAILABLE" />
    <circle cx="701" cy="373" r="4" fill="#ef4444" class="seat" data-code="C5" data-status="UNAVAILABLE" />
    <circle cx="821" cy="373" r="4" fill="#ef4444" class="seat" data-code="C6" data-status="UNAVAILABLE" />
    <circle cx="677" cy="373" r="4" fill="#ef4444" class="seat" data-code="C7" data-status="UNAVAILABLE" />
    <circle cx="845" cy="373" r="4" fill="#ef4444" class="seat" data-code="C8" data-status="UNAVAILABLE" />
    <circle cx="653" cy="373" r="4" fill="#ef4444" class="seat" data-code="C9" data-status="UNAVAILABLE" />
    <circle cx="748" cy="497" r="4" fill="#10b981" class="seat" data-code="CAD1" data-status="AVAILABLE" />
    <circle cx="868" cy="497" r="4" fill="#10b981" class="seat" data-code="CAD10" data-status="AVAILABLE" />
    <circle cx="628" cy="497" r="4" fill="#10b981" class="seat" data-code="CAD11" data-status="AVAILABLE" />
    <circle cx="892" cy="497" r="4" fill="#10b981" class="seat" data-code="CAD12" data-status="AVAILABLE" />
    <circle cx="496" cy="496" r="4" fill="#10b981" class="seat" data-code="CAD13" data-status="AVAILABLE" />
    <circle cx="1003" cy="496" r="4" fill="#10b981" class="seat" data-code="CAD14" data-status="AVAILABLE" />
    <circle cx="472" cy="496" r="4" fill="#10b981" class="seat" data-code="CAD15" data-status="AVAILABLE" />
    <circle cx="1027" cy="496" r="4" fill="#10b981" class="seat" data-code="CAD16" data-status="AVAILABLE" />
    <circle cx="448" cy="496" r="4" fill="#10b981" class="seat" data-code="CAD17" data-status="AVAILABLE" />
    <circle cx="1051" cy="496" r="4" fill="#10b981" class="seat" data-code="CAD18" data-status="AVAILABLE" />
    <circle cx="424" cy="496" r="4" fill="#10b981" class="seat" data-code="CAD19" data-status="AVAILABLE" />
    <circle cx="772" cy="497" r="4" fill="#10b981" class="seat" data-code="CAD2" data-status="AVAILABLE" />
    <circle cx="1075" cy="496" r="4" fill="#10b981" class="seat" data-code="CAD20" data-status="AVAILABLE" />
    <circle cx="724" cy="497" r="4" fill="#10b981" class="seat" data-code="CAD3" data-status="AVAILABLE" />
    <circle cx="796" cy="497" r="4" fill="#10b981" class="seat" data-code="CAD4" data-status="AVAILABLE" />
    <circle cx="700" cy="497" r="4" fill="#10b981" class="seat" data-code="CAD5" data-status="AVAILABLE" />
    <circle cx="820" cy="497" r="4" fill="#10b981" class="seat" data-code="CAD6" data-status="AVAILABLE" />
    <circle cx="676" cy="497" r="4" fill="#10b981" class="seat" data-code="CAD7" data-status="AVAILABLE" />
    <circle cx="844" cy="497" r="4" fill="#10b981" class="seat" data-code="CAD8" data-status="AVAILABLE" />
    <circle cx="652" cy="497" r="4" fill="#10b981" class="seat" data-code="CAD9" data-status="AVAILABLE" />
    <circle cx="749" cy="397" r="4" fill="#ef4444" class="seat" data-code="D1" data-status="UNAVAILABLE" />
    <circle cx="869" cy="397" r="4" fill="#ef4444" class="seat" data-code="D10" data-status="UNAVAILABLE" />
    <circle cx="893" cy="397" r="4" fill="#ef4444" class="seat" data-code="D12" data-status="UNAVAILABLE" />
    <circle cx="605" cy="397" r="4" fill="#ef4444" class="seat" data-code="D13" data-status="UNAVAILABLE" />
    <circle cx="917" cy="397" r="4" fill="#ef4444" class="seat" data-code="D14" data-status="UNAVAILABLE" />
    <circle cx="581" cy="397" r="4" fill="#ef4444" class="seat" data-code="D15" data-status="UNAVAILABLE" />
    <circle cx="515" cy="398" r="4" fill="#ef4444" class="seat" data-code="D17" data-status="UNAVAILABLE" />
    <circle cx="491" cy="398" r="4" fill="#ef4444" class="seat" data-code="D19" data-status="UNAVAILABLE" />
    <circle cx="773" cy="397" r="4" fill="#ef4444" class="seat" data-code="D2" data-status="UNAVAILABLE" />
    <circle cx="1028" cy="397" r="4" fill="#ef4444" class="seat" data-code="D20" data-status="UNAVAILABLE" />
    <circle cx="467" cy="398" r="4" fill="#ef4444" class="seat" data-code="D21" data-status="UNAVAILABLE" />
    <circle cx="1052" cy="397" r="4" fill="#ef4444" class="seat" data-code="D22" data-status="UNAVAILABLE" />
    <circle cx="443" cy="398" r="4" fill="#ef4444" class="seat" data-code="D23" data-status="UNAVAILABLE" />
    <circle cx="1076" cy="397" r="4" fill="#ef4444" class="seat" data-code="D24" data-status="UNAVAILABLE" />
    <circle cx="419" cy="398" r="4" fill="#ef4444" class="seat" data-code="D25" data-status="UNAVAILABLE" />
    <circle cx="1100" cy="397" r="4" fill="#ef4444" class="seat" data-code="D26" data-status="UNAVAILABLE" />
    <circle cx="395" cy="398" r="4" fill="#ef4444" class="seat" data-code="D27" data-status="UNAVAILABLE" />
    <circle cx="725" cy="397" r="4" fill="#ef4444" class="seat" data-code="D3" data-status="UNAVAILABLE" />
    <circle cx="797" cy="397" r="4" fill="#ef4444" class="seat" data-code="D4" data-status="UNAVAILABLE" />
    <circle cx="821" cy="397" r="4" fill="#ef4444" class="seat" data-code="D6" data-status="UNAVAILABLE" />
    <circle cx="845" cy="397" r="4" fill="#ef4444" class="seat" data-code="D8" data-status="UNAVAILABLE" />
    <circle cx="749" cy="421" r="4" fill="#ef4444" class="seat" data-code="E1" data-status="UNAVAILABLE" />
    <circle cx="629" cy="421" r="4" fill="#ef4444" class="seat" data-code="E11" data-status="UNAVAILABLE" />
    <circle cx="605" cy="421" r="4" fill="#ef4444" class="seat" data-code="E13" data-status="UNAVAILABLE" />
    <circle cx="581" cy="421" r="4" fill="#ef4444" class="seat" data-code="E15" data-status="UNAVAILABLE" />
    <circle cx="980" cy="421" r="4" fill="#ef4444" class="seat" data-code="E16" data-status="UNAVAILABLE" />
    <circle cx="515" cy="422" r="4" fill="#ef4444" class="seat" data-code="E17" data-status="UNAVAILABLE" />
    <circle cx="1004" cy="421" r="4" fill="#ef4444" class="seat" data-code="E18" data-status="UNAVAILABLE" />
    <circle cx="491" cy="422" r="4" fill="#ef4444" class="seat" data-code="E19" data-status="UNAVAILABLE" />
    <circle cx="773" cy="421" r="4" fill="#ef4444" class="seat" data-code="E2" data-status="UNAVAILABLE" />
    <circle cx="1028" cy="421" r="4" fill="#ef4444" class="seat" data-code="E20" data-status="UNAVAILABLE" />
    <circle cx="467" cy="422" r="4" fill="#ef4444" class="seat" data-code="E21" data-status="UNAVAILABLE" />
    <circle cx="1052" cy="421" r="4" fill="#ef4444" class="seat" data-code="E22" data-status="UNAVAILABLE" />
    <circle cx="443" cy="422" r="4" fill="#ef4444" class="seat" data-code="E23" data-status="UNAVAILABLE" />
    <circle cx="1076" cy="421" r="4" fill="#ef4444" class="seat" data-code="E24" data-status="UNAVAILABLE" />
    <circle cx="419" cy="422" r="4" fill="#ef4444" class="seat" data-code="E25" data-status="UNAVAILABLE" />
    <circle cx="1100" cy="421" r="4" fill="#ef4444" class="seat" data-code="E26" data-status="UNAVAILABLE" />
    <circle cx="395" cy="422" r="4" fill="#ef4444" class="seat" data-code="E27" data-status="UNAVAILABLE" />
    <circle cx="725" cy="421" r="4" fill="#ef4444" class="seat" data-code="E3" data-status="UNAVAILABLE" />
    <circle cx="797" cy="421" r="4" fill="#ef4444" class="seat" data-code="E4" data-status="UNAVAILABLE" />
    <circle cx="701" cy="421" r="4" fill="#ef4444" class="seat" data-code="E5" data-status="UNAVAILABLE" />
    <circle cx="821" cy="421" r="4" fill="#ef4444" class="seat" data-code="E6" data-status="UNAVAILABLE" />
    <circle cx="677" cy="421" r="4" fill="#ef4444" class="seat" data-code="E7" data-status="UNAVAILABLE" />
    <circle cx="653" cy="421" r="4" fill="#ef4444" class="seat" data-code="E9" data-status="UNAVAILABLE" />
    <circle cx="749" cy="445" r="4" fill="#ef4444" class="seat" data-code="F1" data-status="UNAVAILABLE" />
    <circle cx="869" cy="445" r="4" fill="#ef4444" class="seat" data-code="F10" data-status="UNAVAILABLE" />
    <circle cx="893" cy="445" r="4" fill="#ef4444" class="seat" data-code="F12" data-status="UNAVAILABLE" />
    <circle cx="917" cy="445" r="4" fill="#ef4444" class="seat" data-code="F14" data-status="UNAVAILABLE" />
    <circle cx="773" cy="445" r="4" fill="#ef4444" class="seat" data-code="F2" data-status="UNAVAILABLE" />
    <circle cx="1028" cy="445" r="4" fill="#ef4444" class="seat" data-code="F20" data-status="UNAVAILABLE" />
    <circle cx="467" cy="446" r="4" fill="#ef4444" class="seat" data-code="F21" data-status="UNAVAILABLE" />
    <circle cx="1052" cy="445" r="4" fill="#ef4444" class="seat" data-code="F22" data-status="UNAVAILABLE" />
    <circle cx="443" cy="446" r="4" fill="#ef4444" class="seat" data-code="F23" data-status="UNAVAILABLE" />
    <circle cx="1076" cy="445" r="4" fill="#ef4444" class="seat" data-code="F24" data-status="UNAVAILABLE" />
    <circle cx="419" cy="446" r="4" fill="#ef4444" class="seat" data-code="F25" data-status="UNAVAILABLE" />
    <circle cx="1100" cy="445" r="4" fill="#ef4444" class="seat" data-code="F26" data-status="UNAVAILABLE" />
    <circle cx="395" cy="446" r="4" fill="#ef4444" class="seat" data-code="F27" data-status="UNAVAILABLE" />
    <circle cx="725" cy="445" r="4" fill="#ef4444" class="seat" data-code="F3" data-status="UNAVAILABLE" />
    <circle cx="797" cy="445" r="4" fill="#ef4444" class="seat" data-code="F4" data-status="UNAVAILABLE" />
    <circle cx="701" cy="445" r="4" fill="#ef4444" class="seat" data-code="F5" data-status="UNAVAILABLE" />
    <circle cx="821" cy="445" r="4" fill="#ef4444" class="seat" data-code="F6" data-status="UNAVAILABLE" />
    <circle cx="677" cy="445" r="4" fill="#ef4444" class="seat" data-code="F7" data-status="UNAVAILABLE" />
    <circle cx="845" cy="445" r="4" fill="#ef4444" class="seat" data-code="F8" data-status="UNAVAILABLE" />
    <circle cx="869" cy="469" r="4" fill="#ef4444" class="seat" data-code="G10" data-status="UNAVAILABLE" />
    <circle cx="893" cy="469" r="4" fill="#ef4444" class="seat" data-code="G12" data-status="UNAVAILABLE" />
    <circle cx="917" cy="469" r="4" fill="#ef4444" class="seat" data-code="G14" data-status="UNAVAILABLE" />
    <circle cx="1004" cy="469" r="4" fill="#ef4444" class="seat" data-code="G16" data-status="UNAVAILABLE" />
    <circle cx="496" cy="470" r="4" fill="#ef4444" class="seat" data-code="G17" data-status="UNAVAILABLE" />
    <circle cx="1028" cy="469" r="4" fill="#ef4444" class="seat" data-code="G18" data-status="UNAVAILABLE" />
    <circle cx="472" cy="470" r="4" fill="#ef4444" class="seat" data-code="G19" data-status="UNAVAILABLE" />
    <circle cx="1052" cy="469" r="4" fill="#ef4444" class="seat" data-code="G20" data-status="UNAVAILABLE" />
    <circle cx="448" cy="470" r="4" fill="#ef4444" class="seat" data-code="G21" data-status="UNAVAILABLE" />
    <circle cx="1076" cy="469" r="4" fill="#ef4444" class="seat" data-code="G22" data-status="UNAVAILABLE" />
    <circle cx="424" cy="470" r="4" fill="#10b981" class="seat" data-code="G23" data-status="AVAILABLE" />
    <circle cx="749" cy="551" r="4" fill="#ef4444" class="seat" data-code="H1" data-status="UNAVAILABLE" />
    <circle cx="870" cy="551" r="4" fill="#ef4444" class="seat" data-code="H10" data-status="UNAVAILABLE" />
    <circle cx="629" cy="551" r="4" fill="#ef4444" class="seat" data-code="H11" data-status="UNAVAILABLE" />
    <circle cx="894" cy="551" r="4" fill="#ef4444" class="seat" data-code="H12" data-status="UNAVAILABLE" />
    <circle cx="605" cy="551" r="4" fill="#ef4444" class="seat" data-code="H13" data-status="UNAVAILABLE" />
    <circle cx="918" cy="551" r="4" fill="#ef4444" class="seat" data-code="H14" data-status="UNAVAILABLE" />
    <circle cx="581" cy="551" r="4" fill="#ef4444" class="seat" data-code="H15" data-status="UNAVAILABLE" />
    <circle cx="988" cy="554" r="4" fill="#ef4444" class="seat" data-code="H16" data-status="UNAVAILABLE" />
    <circle cx="516" cy="551" r="4" fill="#ef4444" class="seat" data-code="H17" data-status="UNAVAILABLE" />
    <circle cx="1012" cy="554" r="4" fill="#ef4444" class="seat" data-code="H18" data-status="UNAVAILABLE" />
    <circle cx="492" cy="551" r="4" fill="#ef4444" class="seat" data-code="H19" data-status="UNAVAILABLE" />
    <circle cx="774" cy="551" r="4" fill="#ef4444" class="seat" data-code="H2" data-status="UNAVAILABLE" />
    <circle cx="1036" cy="554" r="4" fill="#ef4444" class="seat" data-code="H20" data-status="UNAVAILABLE" />
    <circle cx="468" cy="551" r="4" fill="#ef4444" class="seat" data-code="H21" data-status="UNAVAILABLE" />
    <circle cx="1060" cy="554" r="4" fill="#ef4444" class="seat" data-code="H22" data-status="UNAVAILABLE" />
    <circle cx="444" cy="551" r="4" fill="#ef4444" class="seat" data-code="H23" data-status="UNAVAILABLE" />
    <circle cx="1084" cy="554" r="4" fill="#ef4444" class="seat" data-code="H24" data-status="UNAVAILABLE" />
    <circle cx="420" cy="551" r="4" fill="#ef4444" class="seat" data-code="H25" data-status="UNAVAILABLE" />
    <circle cx="1108" cy="554" r="4" fill="#ef4444" class="seat" data-code="H26" data-status="UNAVAILABLE" />
    <circle cx="396" cy="551" r="4" fill="#ef4444" class="seat" data-code="H27" data-status="UNAVAILABLE" />
    <circle cx="725" cy="551" r="4" fill="#ef4444" class="seat" data-code="H3" data-status="UNAVAILABLE" />
    <circle cx="798" cy="551" r="4" fill="#ef4444" class="seat" data-code="H4" data-status="UNAVAILABLE" />
    <circle cx="701" cy="551" r="4" fill="#ef4444" class="seat" data-code="H5" data-status="UNAVAILABLE" />
    <circle cx="822" cy="551" r="4" fill="#ef4444" class="seat" data-code="H6" data-status="UNAVAILABLE" />
    <circle cx="677" cy="551" r="4" fill="#ef4444" class="seat" data-code="H7" data-status="UNAVAILABLE" />
    <circle cx="846" cy="551" r="4" fill="#ef4444" class="seat" data-code="H8" data-status="UNAVAILABLE" />
    <circle cx="653" cy="551" r="4" fill="#ef4444" class="seat" data-code="H9" data-status="UNAVAILABLE" />
    <circle cx="749" cy="575" r="4" fill="#ef4444" class="seat" data-code="I1" data-status="UNAVAILABLE" />
    <circle cx="774" cy="575" r="4" fill="#ef4444" class="seat" data-code="I2" data-status="UNAVAILABLE" />
    <circle cx="1036" cy="578" r="4" fill="#ef4444" class="seat" data-code="I20" data-status="UNAVAILABLE" />
    <circle cx="468" cy="575" r="4" fill="#ef4444" class="seat" data-code="I21" data-status="UNAVAILABLE" />
    <circle cx="1060" cy="578" r="4" fill="#ef4444" class="seat" data-code="I22" data-status="UNAVAILABLE" />
    <circle cx="444" cy="575" r="4" fill="#ef4444" class="seat" data-code="I23" data-status="UNAVAILABLE" />
    <circle cx="1084" cy="578" r="4" fill="#ef4444" class="seat" data-code="I24" data-status="UNAVAILABLE" />
    <circle cx="420" cy="575" r="4" fill="#ef4444" class="seat" data-code="I25" data-status="UNAVAILABLE" />
    <circle cx="1108" cy="578" r="4" fill="#ef4444" class="seat" data-code="I26" data-status="UNAVAILABLE" />
    <circle cx="396" cy="575" r="4" fill="#ef4444" class="seat" data-code="I27" data-status="UNAVAILABLE" />
    <circle cx="725" cy="575" r="4" fill="#ef4444" class="seat" data-code="I3" data-status="UNAVAILABLE" />
    <circle cx="701" cy="575" r="4" fill="#ef4444" class="seat" data-code="I5" data-status="UNAVAILABLE" />
    <circle cx="677" cy="575" r="4" fill="#ef4444" class="seat" data-code="I7" data-status="UNAVAILABLE" />
    <circle cx="749" cy="599" r="4" fill="#ef4444" class="seat" data-code="J1" data-status="UNAVAILABLE" />
    <circle cx="629" cy="599" r="4" fill="#ef4444" class="seat" data-code="J11" data-status="UNAVAILABLE" />
    <circle cx="604" cy="599" r="4" fill="#ef4444" class="seat" data-code="J13" data-status="UNAVAILABLE" />
    <circle cx="580" cy="599" r="4" fill="#ef4444" class="seat" data-code="J15" data-status="UNAVAILABLE" />
    <circle cx="774" cy="599" r="4" fill="#ef4444" class="seat" data-code="J2" data-status="UNAVAILABLE" />
    <circle cx="1036" cy="602" r="4" fill="#ef4444" class="seat" data-code="J20" data-status="UNAVAILABLE" />
    <circle cx="1060" cy="602" r="4" fill="#ef4444" class="seat" data-code="J22" data-status="UNAVAILABLE" />
    <circle cx="1084" cy="602" r="4" fill="#ef4444" class="seat" data-code="J24" data-status="UNAVAILABLE" />
    <circle cx="420" cy="599" r="4" fill="#ef4444" class="seat" data-code="J25" data-status="UNAVAILABLE" />
    <circle cx="1108" cy="602" r="4" fill="#ef4444" class="seat" data-code="J26" data-status="UNAVAILABLE" />
    <circle cx="396" cy="599" r="4" fill="#ef4444" class="seat" data-code="J27" data-status="UNAVAILABLE" />
    <circle cx="725" cy="599" r="4" fill="#ef4444" class="seat" data-code="J3" data-status="UNAVAILABLE" />
    <circle cx="701" cy="599" r="4" fill="#ef4444" class="seat" data-code="J5" data-status="UNAVAILABLE" />
    <circle cx="677" cy="599" r="4" fill="#ef4444" class="seat" data-code="J7" data-status="UNAVAILABLE" />
    <circle cx="653" cy="599" r="4" fill="#ef4444" class="seat" data-code="J9" data-status="UNAVAILABLE" />
    <circle cx="749" cy="623" r="4" fill="#ef4444" class="seat" data-code="K1" data-status="UNAVAILABLE" />
    <circle cx="870" cy="623" r="4" fill="#ef4444" class="seat" data-code="K10" data-status="UNAVAILABLE" />
    <circle cx="894" cy="623" r="4" fill="#ef4444" class="seat" data-code="K12" data-status="UNAVAILABLE" />
    <circle cx="918" cy="623" r="4" fill="#ef4444" class="seat" data-code="K14" data-status="UNAVAILABLE" />
    <circle cx="988" cy="626" r="4" fill="#ef4444" class="seat" data-code="K16" data-status="UNAVAILABLE" />
    <circle cx="1012" cy="626" r="4" fill="#ef4444" class="seat" data-code="K18" data-status="UNAVAILABLE" />
    <circle cx="774" cy="623" r="4" fill="#ef4444" class="seat" data-code="K2" data-status="UNAVAILABLE" />
    <circle cx="1036" cy="626" r="4" fill="#ef4444" class="seat" data-code="K20" data-status="UNAVAILABLE" />
    <circle cx="468" cy="623" r="4" fill="#ef4444" class="seat" data-code="K21" data-status="UNAVAILABLE" />
    <circle cx="1060" cy="626" r="4" fill="#ef4444" class="seat" data-code="K22" data-status="UNAVAILABLE" />
    <circle cx="444" cy="623" r="4" fill="#ef4444" class="seat" data-code="K23" data-status="UNAVAILABLE" />
    <circle cx="1084" cy="626" r="4" fill="#ef4444" class="seat" data-code="K24" data-status="UNAVAILABLE" />
    <circle cx="420" cy="623" r="4" fill="#ef4444" class="seat" data-code="K25" data-status="UNAVAILABLE" />
    <circle cx="1108" cy="626" r="4" fill="#ef4444" class="seat" data-code="K26" data-status="UNAVAILABLE" />
    <circle cx="396" cy="623" r="4" fill="#ef4444" class="seat" data-code="K27" data-status="UNAVAILABLE" />
    <circle cx="725" cy="623" r="4" fill="#ef4444" class="seat" data-code="K3" data-status="UNAVAILABLE" />
    <circle cx="798" cy="623" r="4" fill="#ef4444" class="seat" data-code="K4" data-status="UNAVAILABLE" />
    <circle cx="822" cy="623" r="4" fill="#ef4444" class="seat" data-code="K6" data-status="UNAVAILABLE" />
    <circle cx="846" cy="623" r="4" fill="#ef4444" class="seat" data-code="K8" data-status="UNAVAILABLE" />
    <circle cx="749" cy="647" r="4" fill="#ef4444" class="seat" data-code="L1" data-status="UNAVAILABLE" />
    <circle cx="629" cy="647" r="4" fill="#ef4444" class="seat" data-code="L11" data-status="UNAVAILABLE" />
    <circle cx="605" cy="647" r="4" fill="#ef4444" class="seat" data-code="L13" data-status="UNAVAILABLE" />
    <circle cx="581" cy="647" r="4" fill="#ef4444" class="seat" data-code="L15" data-status="UNAVAILABLE" />
    <circle cx="516" cy="647" r="4" fill="#ef4444" class="seat" data-code="L17" data-status="UNAVAILABLE" />
    <circle cx="492" cy="647" r="4" fill="#ef4444" class="seat" data-code="L19" data-status="UNAVAILABLE" />
    <circle cx="774" cy="647" r="4" fill="#ef4444" class="seat" data-code="L2" data-status="UNAVAILABLE" />
    <circle cx="1036" cy="650" r="4" fill="#ef4444" class="seat" data-code="L20" data-status="UNAVAILABLE" />
    <circle cx="468" cy="647" r="4" fill="#ef4444" class="seat" data-code="L21" data-status="UNAVAILABLE" />
    <circle cx="1060" cy="650" r="4" fill="#ef4444" class="seat" data-code="L22" data-status="UNAVAILABLE" />
    <circle cx="444" cy="647" r="4" fill="#ef4444" class="seat" data-code="L23" data-status="UNAVAILABLE" />
    <circle cx="1084" cy="650" r="4" fill="#ef4444" class="seat" data-code="L24" data-status="UNAVAILABLE" />
    <circle cx="420" cy="647" r="4" fill="#ef4444" class="seat" data-code="L25" data-status="UNAVAILABLE" />
    <circle cx="1108" cy="650" r="4" fill="#ef4444" class="seat" data-code="L26" data-status="UNAVAILABLE" />
    <circle cx="396" cy="647" r="4" fill="#ef4444" class="seat" data-code="L27" data-status="UNAVAILABLE" />
    <circle cx="725" cy="647" r="4" fill="#ef4444" class="seat" data-code="L3" data-status="UNAVAILABLE" />
    <circle cx="701" cy="647" r="4" fill="#ef4444" class="seat" data-code="L5" data-status="UNAVAILABLE" />
    <circle cx="677" cy="647" r="4" fill="#ef4444" class="seat" data-code="L7" data-status="UNAVAILABLE" />
    <circle cx="653" cy="647" r="4" fill="#ef4444" class="seat" data-code="L9" data-status="UNAVAILABLE" />
    <circle cx="749" cy="671" r="4" fill="#ef4444" class="seat" data-code="M1" data-status="UNAVAILABLE" />
    <circle cx="870" cy="671" r="4" fill="#ef4444" class="seat" data-code="M10" data-status="UNAVAILABLE" />
    <circle cx="629" cy="671" r="4" fill="#ef4444" class="seat" data-code="M11" data-status="UNAVAILABLE" />
    <circle cx="894" cy="671" r="4" fill="#ef4444" class="seat" data-code="M12" data-status="UNAVAILABLE" />
    <circle cx="605" cy="671" r="4" fill="#ef4444" class="seat" data-code="M13" data-status="UNAVAILABLE" />
    <circle cx="918" cy="671" r="4" fill="#ef4444" class="seat" data-code="M14" data-status="UNAVAILABLE" />
    <circle cx="581" cy="671" r="4" fill="#ef4444" class="seat" data-code="M15" data-status="UNAVAILABLE" />
    <circle cx="988" cy="674" r="4" fill="#ef4444" class="seat" data-code="M16" data-status="UNAVAILABLE" />
    <circle cx="1012" cy="674" r="4" fill="#ef4444" class="seat" data-code="M18" data-status="UNAVAILABLE" />
    <circle cx="774" cy="671" r="4" fill="#ef4444" class="seat" data-code="M2" data-status="UNAVAILABLE" />
    <circle cx="1036" cy="674" r="4" fill="#ef4444" class="seat" data-code="M20" data-status="UNAVAILABLE" />
    <circle cx="468" cy="671" r="4" fill="#ef4444" class="seat" data-code="M21" data-status="UNAVAILABLE" />
    <circle cx="1060" cy="674" r="4" fill="#ef4444" class="seat" data-code="M22" data-status="UNAVAILABLE" />
    <circle cx="444" cy="671" r="4" fill="#ef4444" class="seat" data-code="M23" data-status="UNAVAILABLE" />
    <circle cx="1084" cy="674" r="4" fill="#ef4444" class="seat" data-code="M24" data-status="UNAVAILABLE" />
    <circle cx="420" cy="671" r="4" fill="#ef4444" class="seat" data-code="M25" data-status="UNAVAILABLE" />
    <circle cx="1108" cy="674" r="4" fill="#ef4444" class="seat" data-code="M26" data-status="UNAVAILABLE" />
    <circle cx="396" cy="671" r="4" fill="#ef4444" class="seat" data-code="M27" data-status="UNAVAILABLE" />
    <circle cx="725" cy="671" r="4" fill="#ef4444" class="seat" data-code="M3" data-status="UNAVAILABLE" />
    <circle cx="798" cy="671" r="4" fill="#ef4444" class="seat" data-code="M4" data-status="UNAVAILABLE" />
    <circle cx="701" cy="671" r="4" fill="#ef4444" class="seat" data-code="M5" data-status="UNAVAILABLE" />
    <circle cx="822" cy="671" r="4" fill="#ef4444" class="seat" data-code="M6" data-status="UNAVAILABLE" />
    <circle cx="677" cy="671" r="4" fill="#ef4444" class="seat" data-code="M7" data-status="UNAVAILABLE" />
    <circle cx="846" cy="671" r="4" fill="#ef4444" class="seat" data-code="M8" data-status="UNAVAILABLE" />
    <circle cx="653" cy="671" r="4" fill="#ef4444" class="seat" data-code="M9" data-status="UNAVAILABLE" />
    <circle cx="749" cy="695" r="4" fill="#ef4444" class="seat" data-code="N1" data-status="UNAVAILABLE" />
    <circle cx="870" cy="695" r="4" fill="#ef4444" class="seat" data-code="N10" data-status="UNAVAILABLE" />
    <circle cx="894" cy="695" r="4" fill="#ef4444" class="seat" data-code="N12" data-status="UNAVAILABLE" />
    <circle cx="918" cy="695" r="4" fill="#ef4444" class="seat" data-code="N14" data-status="UNAVAILABLE" />
    <circle cx="988" cy="698" r="4" fill="#ef4444" class="seat" data-code="N16" data-status="UNAVAILABLE" />
    <circle cx="516" cy="695" r="4" fill="#ef4444" class="seat" data-code="N17" data-status="UNAVAILABLE" />
    <circle cx="1012" cy="698" r="4" fill="#ef4444" class="seat" data-code="N18" data-status="UNAVAILABLE" />
    <circle cx="492" cy="695" r="4" fill="#ef4444" class="seat" data-code="N19" data-status="UNAVAILABLE" />
    <circle cx="774" cy="695" r="4" fill="#ef4444" class="seat" data-code="N2" data-status="UNAVAILABLE" />
    <circle cx="1036" cy="698" r="4" fill="#ef4444" class="seat" data-code="N20" data-status="UNAVAILABLE" />
    <circle cx="468" cy="695" r="4" fill="#ef4444" class="seat" data-code="N21" data-status="UNAVAILABLE" />
    <circle cx="1060" cy="698" r="4" fill="#ef4444" class="seat" data-code="N22" data-status="UNAVAILABLE" />
    <circle cx="444" cy="695" r="4" fill="#ef4444" class="seat" data-code="N23" data-status="UNAVAILABLE" />
    <circle cx="1084" cy="698" r="4" fill="#ef4444" class="seat" data-code="N24" data-status="UNAVAILABLE" />
    <circle cx="420" cy="695" r="4" fill="#ef4444" class="seat" data-code="N25" data-status="UNAVAILABLE" />
    <circle cx="1108" cy="698" r="4" fill="#10b981" class="seat" data-code="N26" data-status="AVAILABLE" />
    <circle cx="396" cy="695" r="4" fill="#10b981" class="seat" data-code="N27" data-status="AVAILABLE" />
    <circle cx="725" cy="695" r="4" fill="#ef4444" class="seat" data-code="N3" data-status="UNAVAILABLE" />
    <circle cx="798" cy="695" r="4" fill="#ef4444" class="seat" data-code="N4" data-status="UNAVAILABLE" />
    <circle cx="701" cy="695" r="4" fill="#ef4444" class="seat" data-code="N5" data-status="UNAVAILABLE" />
    <circle cx="822" cy="695" r="4" fill="#ef4444" class="seat" data-code="N6" data-status="UNAVAILABLE" />
    <circle cx="677" cy="695" r="4" fill="#ef4444" class="seat" data-code="N7" data-status="UNAVAILABLE" />
    <circle cx="846" cy="695" r="4" fill="#ef4444" class="seat" data-code="N8" data-status="UNAVAILABLE" />
    <circle cx="749" cy="719" r="4" fill="#ef4444" class="seat" data-code="O1" data-status="UNAVAILABLE" />
    <circle cx="629" cy="719" r="4" fill="#10b981" class="seat" data-code="O11" data-status="AVAILABLE" />
    <circle cx="605" cy="719" r="4" fill="#ef4444" class="seat" data-code="O13" data-status="UNAVAILABLE" />
    <circle cx="581" cy="719" r="4" fill="#ef4444" class="seat" data-code="O15" data-status="UNAVAILABLE" />
    <circle cx="988" cy="722" r="4" fill="#ef4444" class="seat" data-code="O16" data-status="UNAVAILABLE" />
    <circle cx="516" cy="719" r="4" fill="#ef4444" class="seat" data-code="O17" data-status="UNAVAILABLE" />
    <circle cx="1012" cy="722" r="4" fill="#ef4444" class="seat" data-code="O18" data-status="UNAVAILABLE" />
    <circle cx="492" cy="719" r="4" fill="#ef4444" class="seat" data-code="O19" data-status="UNAVAILABLE" />
    <circle cx="774" cy="719" r="4" fill="#ef4444" class="seat" data-code="O2" data-status="UNAVAILABLE" />
    <circle cx="1036" cy="722" r="4" fill="#ef4444" class="seat" data-code="O20" data-status="UNAVAILABLE" />
    <circle cx="468" cy="719" r="4" fill="#ef4444" class="seat" data-code="O21" data-status="UNAVAILABLE" />
    <circle cx="1060" cy="722" r="4" fill="#ef4444" class="seat" data-code="O22" data-status="UNAVAILABLE" />
    <circle cx="444" cy="719" r="4" fill="#ef4444" class="seat" data-code="O23" data-status="UNAVAILABLE" />
    <circle cx="1084" cy="722" r="4" fill="#ef4444" class="seat" data-code="O24" data-status="UNAVAILABLE" />
    <circle cx="420" cy="719" r="4" fill="#ef4444" class="seat" data-code="O25" data-status="UNAVAILABLE" />
    <circle cx="1108" cy="722" r="4" fill="#ef4444" class="seat" data-code="O26" data-status="UNAVAILABLE" />
    <circle cx="396" cy="719" r="4" fill="#10b981" class="seat" data-code="O27" data-status="AVAILABLE" />
    <circle cx="725" cy="719" r="4" fill="#ef4444" class="seat" data-code="O3" data-status="UNAVAILABLE" />
    <circle cx="798" cy="719" r="4" fill="#ef4444" class="seat" data-code="O4" data-status="UNAVAILABLE" />
    <circle cx="701" cy="719" r="4" fill="#ef4444" class="seat" data-code="O5" data-status="UNAVAILABLE" />
    <circle cx="822" cy="719" r="4" fill="#ef4444" class="seat" data-code="O6" data-status="UNAVAILABLE" />
    <circle cx="677" cy="719" r="4" fill="#ef4444" class="seat" data-code="O7" data-status="UNAVAILABLE" />
    <circle cx="653" cy="719" r="4" fill="#ef4444" class="seat" data-code="O9" data-status="UNAVAILABLE" />
    <circle cx="749" cy="743" r="4" fill="#ef4444" class="seat" data-code="P1" data-status="UNAVAILABLE" />
    <circle cx="870" cy="743" r="4" fill="#ef4444" class="seat" data-code="P10" data-status="UNAVAILABLE" />
    <circle cx="629" cy="743" r="4" fill="#ef4444" class="seat" data-code="P11" data-status="UNAVAILABLE" />
    <circle cx="894" cy="743" r="4" fill="#ef4444" class="seat" data-code="P12" data-status="UNAVAILABLE" />
    <circle cx="605" cy="743" r="4" fill="#ef4444" class="seat" data-code="P13" data-status="UNAVAILABLE" />
    <circle cx="918" cy="743" r="4" fill="#ef4444" class="seat" data-code="P14" data-status="UNAVAILABLE" />
    <circle cx="581" cy="743" r="4" fill="#ef4444" class="seat" data-code="P15" data-status="UNAVAILABLE" />
    <circle cx="988" cy="746" r="4" fill="#ef4444" class="seat" data-code="P16" data-status="UNAVAILABLE" />
    <circle cx="516" cy="743" r="4" fill="#ef4444" class="seat" data-code="P17" data-status="UNAVAILABLE" />
    <circle cx="1012" cy="746" r="4" fill="#ef4444" class="seat" data-code="P18" data-status="UNAVAILABLE" />
    <circle cx="492" cy="743" r="4" fill="#ef4444" class="seat" data-code="P19" data-status="UNAVAILABLE" />
    <circle cx="774" cy="743" r="4" fill="#10b981" class="seat" data-code="P2" data-status="AVAILABLE" />
    <circle cx="1036" cy="746" r="4" fill="#ef4444" class="seat" data-code="P20" data-status="UNAVAILABLE" />
    <circle cx="468" cy="743" r="4" fill="#ef4444" class="seat" data-code="P21" data-status="UNAVAILABLE" />
    <circle cx="1060" cy="746" r="4" fill="#ef4444" class="seat" data-code="P22" data-status="UNAVAILABLE" />
    <circle cx="444" cy="743" r="4" fill="#ef4444" class="seat" data-code="P23" data-status="UNAVAILABLE" />
    <circle cx="1084" cy="746" r="4" fill="#10b981" class="seat" data-code="P24" data-status="AVAILABLE" />
    <circle cx="420" cy="743" r="4" fill="#ef4444" class="seat" data-code="P25" data-status="UNAVAILABLE" />
    <circle cx="1108" cy="746" r="4" fill="#10b981" class="seat" data-code="P26" data-status="AVAILABLE" />
    <circle cx="396" cy="743" r="4" fill="#ef4444" class="seat" data-code="P27" data-status="UNAVAILABLE" />
    <circle cx="725" cy="743" r="4" fill="#ef4444" class="seat" data-code="P3" data-status="UNAVAILABLE" />
    <circle cx="798" cy="743" r="4" fill="#ef4444" class="seat" data-code="P4" data-status="UNAVAILABLE" />
    <circle cx="701" cy="743" r="4" fill="#ef4444" class="seat" data-code="P5" data-status="UNAVAILABLE" />
    <circle cx="822" cy="743" r="4" fill="#ef4444" class="seat" data-code="P6" data-status="UNAVAILABLE" />
    <circle cx="677" cy="743" r="4" fill="#ef4444" class="seat" data-code="P7" data-status="UNAVAILABLE" />
    <circle cx="846" cy="743" r="4" fill="#ef4444" class="seat" data-code="P8" data-status="UNAVAILABLE" />
    <circle cx="653" cy="743" r="4" fill="#ef4444" class="seat" data-code="P9" data-status="UNAVAILABLE" />
    <circle cx="871" cy="770" r="4" fill="#10b981" class="seat" data-code="Q10" data-status="AVAILABLE" />
    <circle cx="630" cy="768" r="4" fill="#ef4444" class="seat" data-code="Q11" data-status="UNAVAILABLE" />
    <circle cx="895" cy="770" r="4" fill="#ef4444" class="seat" data-code="Q12" data-status="UNAVAILABLE" />
    <circle cx="606" cy="768" r="4" fill="#ef4444" class="seat" data-code="Q13" data-status="UNAVAILABLE" />
    <circle cx="919" cy="770" r="4" fill="#ef4444" class="seat" data-code="Q14" data-status="UNAVAILABLE" />
    <circle cx="582" cy="768" r="4" fill="#ef4444" class="seat" data-code="Q15" data-status="UNAVAILABLE" />
    <circle cx="988" cy="770" r="4" fill="#ef4444" class="seat" data-code="Q16" data-status="UNAVAILABLE" />
    <circle cx="516" cy="767" r="4" fill="#ef4444" class="seat" data-code="Q17" data-status="UNAVAILABLE" />
    <circle cx="1012" cy="770" r="4" fill="#ef4444" class="seat" data-code="Q18" data-status="UNAVAILABLE" />
    <circle cx="492" cy="767" r="4" fill="#ef4444" class="seat" data-code="Q19" data-status="UNAVAILABLE" />
    <circle cx="1036" cy="770" r="4" fill="#ef4444" class="seat" data-code="Q20" data-status="UNAVAILABLE" />
    <circle cx="468" cy="767" r="4" fill="#ef4444" class="seat" data-code="Q21" data-status="UNAVAILABLE" />
    <circle cx="1060" cy="770" r="4" fill="#10b981" class="seat" data-code="Q22" data-status="AVAILABLE" />
    <circle cx="444" cy="767" r="4" fill="#ef4444" class="seat" data-code="Q23" data-status="UNAVAILABLE" />
    <circle cx="1084" cy="770" r="4" fill="#10b981" class="seat" data-code="Q24" data-status="AVAILABLE" />
    <circle cx="420" cy="767" r="4" fill="#ef4444" class="seat" data-code="Q25" data-status="UNAVAILABLE" />
    <circle cx="1108" cy="770" r="4" fill="#10b981" class="seat" data-code="Q26" data-status="AVAILABLE" />
    <circle cx="396" cy="767" r="4" fill="#ef4444" class="seat" data-code="Q27" data-status="UNAVAILABLE" />
    <circle cx="823" cy="770" r="4" fill="#10b981" class="seat" data-code="Q6" data-status="AVAILABLE" />
    <circle cx="678" cy="768" r="4" fill="#10b981" class="seat" data-code="Q7" data-status="AVAILABLE" />
    <circle cx="847" cy="770" r="4" fill="#10b981" class="seat" data-code="Q8" data-status="AVAILABLE" />
    <circle cx="654" cy="768" r="4" fill="#10b981" class="seat" data-code="Q9" data-status="AVAILABLE" />
    <circle cx="871" cy="794" r="4" fill="#ef4444" class="seat" data-code="R10" data-status="UNAVAILABLE" />
    <circle cx="630" cy="792" r="4" fill="#10b981" class="seat" data-code="R11" data-status="AVAILABLE" />
    <circle cx="895" cy="794" r="4" fill="#ef4444" class="seat" data-code="R12" data-status="UNAVAILABLE" />
    <circle cx="606" cy="792" r="4" fill="#10b981" class="seat" data-code="R13" data-status="AVAILABLE" />
    <circle cx="919" cy="794" r="4" fill="#ef4444" class="seat" data-code="R14" data-status="UNAVAILABLE" />
    <circle cx="582" cy="792" r="4" fill="#10b981" class="seat" data-code="R15" data-status="AVAILABLE" />
    <circle cx="943" cy="794" r="4" fill="#ef4444" class="seat" data-code="R16" data-status="UNAVAILABLE" />
    <circle cx="558" cy="792" r="4" fill="#ef4444" class="seat" data-code="R17" data-status="UNAVAILABLE" />
    <circle cx="967" cy="794" r="4" fill="#ef4444" class="seat" data-code="R18" data-status="UNAVAILABLE" />
    <circle cx="534" cy="792" r="4" fill="#ef4444" class="seat" data-code="R19" data-status="UNAVAILABLE" />
    <circle cx="991" cy="794" r="4" fill="#ef4444" class="seat" data-code="R20" data-status="UNAVAILABLE" />
    <circle cx="510" cy="792" r="4" fill="#10b981" class="seat" data-code="R21" data-status="AVAILABLE" />
    <circle cx="1015" cy="794" r="4" fill="#ef4444" class="seat" data-code="R22" data-status="UNAVAILABLE" />
    <circle cx="486" cy="792" r="4" fill="#10b981" class="seat" data-code="R23" data-status="AVAILABLE" />
    <circle cx="1039" cy="794" r="4" fill="#10b981" class="seat" data-code="R24" data-status="AVAILABLE" />
    <circle cx="462" cy="792" r="4" fill="#10b981" class="seat" data-code="R25" data-status="AVAILABLE" />
    <circle cx="1063" cy="794" r="4" fill="#10b981" class="seat" data-code="R26" data-status="AVAILABLE" />
    <circle cx="438" cy="792" r="4" fill="#10b981" class="seat" data-code="R27" data-status="AVAILABLE" />
    <circle cx="1087" cy="794" r="4" fill="#10b981" class="seat" data-code="R28" data-status="AVAILABLE" />
    <circle cx="414" cy="792" r="4" fill="#10b981" class="seat" data-code="R29" data-status="AVAILABLE" />
    <circle cx="1111" cy="794" r="4" fill="#10b981" class="seat" data-code="R30" data-status="AVAILABLE" />
    <circle cx="390" cy="792" r="4" fill="#10b981" class="seat" data-code="R31" data-status="AVAILABLE" />
    <circle cx="823" cy="794" r="4" fill="#10b981" class="seat" data-code="R6" data-status="AVAILABLE" />
    <circle cx="678" cy="792" r="4" fill="#10b981" class="seat" data-code="R7" data-status="AVAILABLE" />
    <circle cx="847" cy="794" r="4" fill="#ef4444" class="seat" data-code="R8" data-status="UNAVAILABLE" />
    <circle cx="654" cy="792" r="4" fill="#10b981" class="seat" data-code="R9" data-status="AVAILABLE" />
  </g>
</svg>