<svg width="256" height="256" viewBox="0 0 256 256" fill="none" xmlns="http://www.w3.org/2000/svg">
  <defs>
    <linearGradient id="bg" x1="36" y1="20" x2="220" y2="236" gradientUnits="userSpaceOnUse">
      <stop stop-color="#090B12" />
      <stop offset="1" stop-color="#131722" />
    </linearGradient>
    <linearGradient id="ticket" x1="64" y1="74" x2="188" y2="182" gradientUnits="userSpaceOnUse">
      <stop stop-color="#FB923C" />
      <stop offset="1" stop-color="#F97316" />
    </linearGradient>
  </defs>

  <rect x="20" y="20" width="216" height="216" rx="56" fill="url(#bg)" />
  <rect x="20.75" y="20.75" width="214.5" height="214.5" rx="55.25" stroke="white" stroke-opacity="0.06" stroke-width="1.5" />

  <path
    d="M85 74C85 84.4934 76.4934 93 66 93V163C76.4934 163 85 171.507 85 182H171C171 171.507 179.507 163 190 163V93C179.507 93 171 84.4934 171 74H85Z"
    fill="url(#ticket)"
  />

  <circle cx="66" cy="128" r="8" fill="#111827" />
  <circle cx="190" cy="128" r="8" fill="#111827" />

  <path d="M128 95V161" stroke="#FFF7ED" stroke-width="6" stroke-linecap="round" stroke-dasharray="8 10" />

  <rect x="96" y="110" width="20" height="36" rx="10" fill="#FFF7ED" />
  <rect x="140" y="110" width="20" height="36" rx="10" fill="#FFF7ED" />
  <rect x="106" y="123" width="44" height="10" rx="5" fill="#111827" />

  <circle cx="186" cy="72" r="8" fill="#A3E635" />
</svg>
