<svg xmlns="http://www.w3.org/2000/svg" viewBox="0 0 1311 994" width="100%" height="100%">
  <g id="bradesco-background-layer">
    <image href="https://assets.bileto.sympla.com.br/eventmanager/production/3p8jkpllvjmukiapjj3eql8eegmm9nc0ejlgk4sklockaaoqm1oolll4nv201uucmvq8vp5qqhianhn88r53cosj7rtng4jbe4gkaci.png" x="148" y="84" width="783" height="596" preserveAspectRatio="none" />
    <polygon points="442.55242919921875,305.4563293457031 393.307373046875,452.9808349609375 674.9414672851562,452.98077392578125 627.6962890625,303.9563293457031" fill="rgba(0,0,0,0.05)" stroke="#ccc" stroke-width="1" />
    <polygon points="416.22528076171875,270.43267822265625 423.22528076171875,280.6905212402344 646.2460327148438,280.2625732421875 652.0447387695312,269.2832946777344 646.034423828125,252.0924530029297 634.2252807617188,249.4326934814453 435.72528076171875,250.9326934814453 427.22528076171875,253.9326934814453" fill="rgba(0,0,0,0.05)" stroke="#ccc" stroke-width="1" />
    <polygon points="414.1194152832031,274.7611083984375 353.97052001953125,348.0220642089844 375.31854248046875,348.9145812988281 424.29779052734375,286.3183898925781" fill="rgba(0,0,0,0.05)" stroke="#ccc" stroke-width="1" />
    <polygon points="656.979248046875,271.8817138671875 646.403076171875,284.76641845703125 692.2245483398438,346.8352355957031 715.5768432617188,344.2883605957031" fill="rgba(0,0,0,0.05)" stroke="#ccc" stroke-width="1" />
    <polygon points="433.6766357421875,200.3841552734375 636.884765625,197.48545837402344 648.6217651367188,215.25311279296875 422.5511779785156,217.7261505126953" fill="rgba(0,0,0,0.05)" stroke="#ccc" stroke-width="1" />
    <polygon points="423.158935546875,216.65509033203125 650.220947265625,214.67581176757812 655.9031982421875,225.77391052246094 646.28662109375,234.58343505859375 419.3504333496094,235.5847930908203 414.4567565917969,227.98587036132812" fill="rgba(0,0,0,0.05)" stroke="#ccc" stroke-width="1" />
    <polygon points="352.2921142578125,280.6699523925781 375.3256530761719,285.02618408203125 421.58868408203125,240.395263671875 411.7027282714844,230.66954040527344" fill="rgba(0,0,0,0.05)" stroke="#ccc" stroke-width="1" />
    <polygon points="661.5379028320312,229.6132049560547 647.0353393554688,237.46102905273438 692.1996459960938,280.4689025878906 716.7254028320312,277.5613708496094" fill="rgba(0,0,0,0.05)" stroke="#ccc" stroke-width="1" />
  </g>
</svg>