<?xml version="1.0" encoding="UTF-8"?>
<svg xmlns="http://www.w3.org/2000/svg" viewBox="0 0 2400 2000">
<g id="PALCO_EXTRAS">
    <g id="PALCO_EXTRAS_Area">
      <path id="area" fill="#666666" d="M1603.784,1831.766c-93.509-34.945-240.492-51.616-393.084-51.616 s-302.783,18.623-398.084,49.675S670.306,1900,670.306,1900h1076.471C1746.776,1900,1697.293,1866.711,1603.784,1831.766z"></path>
      <path fill="#666666" d="M1485.874,1094.417c-8.242,9.158-17.064,27.728-30.97,47.708c28.559,24.896,56.034,70.688,56.034,70.688 l63.192-43.129C1574.131,1169.684,1525.255,1116.397,1485.874,1094.417z"></path>
    </g>
    <g id="PALCO_EXTRAS_Extra">
      <text transform="matrix(1 0 0 1 1179.5972 1832.5801)" fill="#FFFFFF" font-family="'MyriadPro-Bold'" font-size="24">Palco</text>
      <text transform="matrix(0.7088 0.7054 -0.7054 0.7088 1482.0444 1134.1572)" fill="#FFFFFF" font-family="'MyriadPro-Bold'" font-size="18">Técnica</text>
    </g>
  </g>
  <g id="Anfiteatro">
    <g id="Anfiteatro_Area_de_Assentos" data-seatarea="true">
     
      <g id="Anfiteatro_Legendas">
        <text transform="matrix(1 0 0 1 1145.6177 139.5801)" fill="#000000" font-family="'MyriadPro-Bold'" font-size="24">Anfiteatro</text>
        <g>
          <path d="M1193.121,151.717h7.808v2.374h-4.92v2.926h4.597v2.355h-4.597v5.148h-2.888V151.717z"></path>
          <path d="M1200.653,189.906h-4.711v3.039h5.262v2.375h-8.149v-12.804h7.884v2.374h-4.996v2.66h4.711V189.906z"></path>
          <path d="M1191.497,213.506c1.064-0.189,2.451-0.285,3.895-0.285c2.451,0,4.046,0.399,5.262,1.33 c1.33,0.988,2.165,2.584,2.165,4.863c0,2.45-0.893,4.142-2.108,5.187c-1.349,1.12-3.419,1.652-5.927,1.652 c-1.501,0-2.584-0.095-3.287-0.189V213.506z M1194.384,223.936c0.247,0.057,0.665,0.057,1.007,0.057 c2.64,0.02,4.37-1.425,4.37-4.483c0-2.754-1.559-4.065-4.066-4.065c-0.627,0-1.064,0.058-1.311,0.114V223.936z"></path>
          <path d="M1201.841,256.579c-0.513,0.247-1.729,0.551-3.268,0.551c-4.427,0-6.706-2.773-6.706-6.44 c0-4.369,3.115-6.781,6.991-6.781c1.5,0,2.641,0.304,3.153,0.569l-0.608,2.28c-0.569-0.247-1.387-0.476-2.432-0.476 c-2.279,0-4.065,1.387-4.065,4.256c0,2.564,1.52,4.179,4.084,4.179c0.893,0,1.843-0.171,2.432-0.418L1201.841,256.579z"></path>
          <path d="M1192.371,275.106c0.76-0.152,2.28-0.285,3.743-0.285c1.767,0,2.85,0.171,3.78,0.723c0.893,0.475,1.52,1.349,1.52,2.526 c0,1.121-0.665,2.165-2.09,2.717v0.038c1.463,0.38,2.546,1.5,2.546,3.153c0,1.178-0.532,2.09-1.33,2.717 c-0.931,0.74-2.488,1.158-5.034,1.158c-1.425,0-2.488-0.095-3.134-0.189V275.106z M1195.239,279.989h0.949 c1.539,0,2.337-0.627,2.337-1.577c0-0.969-0.74-1.481-2.052-1.481c-0.646,0-1.006,0.038-1.234,0.095V279.989z M1195.239,285.669 c0.285,0.057,0.627,0.057,1.121,0.057c1.311,0,2.469-0.513,2.469-1.861c0-1.292-1.158-1.805-2.603-1.805h-0.987V285.669z"></path>
          <path d="M1194.84,315.234l-0.893,3.286h-3.002l3.914-12.804h3.781l3.989,12.804h-3.115l-0.988-3.286H1194.84z M1198.089,313.068 l-0.798-2.717c-0.209-0.76-0.438-1.729-0.627-2.47h-0.058c-0.171,0.76-0.38,1.729-0.569,2.47l-0.779,2.717H1198.089z"></path>
        </g>
      </g>
    </g>
    
  </g>
  <g id="Galeria">
    <g id="Galeria_Area_de_Assentos" data-seatarea="true">
     
      <g id="Galeria_Legendas">
        <text transform="matrix(1 0 0 1 2100.2017 880.5801)" fill="#000000" font-family="'MyriadPro-Bold'" font-size="24">Galeria</text>
        <text transform="matrix(1 0 0 1 232.2017 880.5801)" fill="#000000" font-family="'MyriadPro-Bold'" font-size="24">Galeria</text>
        <g>
          <path d="M649.762,544.737c-0.287,0.491-1.127,1.421-2.404,2.279c-3.675,2.469-7.113,1.438-9.158-1.606 c-2.437-3.626-1.195-7.366,2.021-9.527c1.245-0.837,2.361-1.221,2.935-1.287l0.767,2.232c-0.61,0.112-1.416,0.378-2.283,0.961 c-1.893,1.271-2.602,3.418-1.001,5.8c1.431,2.129,3.592,2.621,5.72,1.191c0.742-0.498,1.436-1.17,1.786-1.703L649.762,544.737z"></path>
          <path d="M654.465,568.717c0.545-0.55,1.732-1.507,2.947-2.323c1.466-0.985,2.46-1.448,3.541-1.509 c1.006-0.104,2.014,0.272,2.67,1.25c0.625,0.931,0.655,2.167-0.22,3.42l0.021,0.032c1.427-0.5,2.951-0.175,3.873,1.197 c0.656,0.978,0.723,2.032,0.41,2.997c-0.359,1.133-1.42,2.349-3.533,3.769c-1.182,0.794-2.117,1.309-2.707,1.59L654.465,568.717z M659.568,571.171l0.788-0.529c1.277-0.858,1.591-1.824,1.06-2.612c-0.539-0.804-1.44-0.817-2.529-0.086 c-0.535,0.36-0.813,0.593-0.971,0.767L659.568,571.171z M662.735,575.885c0.269-0.112,0.552-0.303,0.962-0.578 c1.088-0.731,1.764-1.802,1.012-2.922c-0.721-1.072-1.968-0.852-3.166-0.047l-0.82,0.551L662.735,575.885z"></path>
          <path d="M681.123,603.969l1.092,3.226l-2.492,1.674l-3.892-12.81l3.138-2.108l10.451,8.403l-2.585,1.737l-2.653-2.176 L681.123,603.969z M682.611,600.359l-2.178-1.81c-0.597-0.515-1.326-1.191-1.897-1.701l-0.048,0.032 c0.282,0.727,0.649,1.646,0.905,2.368l0.868,2.689L682.611,600.359z"></path>
        </g>
        <g>
          <path d="M1777.736,552.716c-0.565-0.066-1.755-0.462-3.055-1.287c-3.737-2.371-4.177-5.934-2.212-9.03 c2.342-3.688,6.264-4.057,9.537-1.979c1.267,0.803,2.066,1.671,2.357,2.17l-1.736,1.6c-0.348-0.514-0.916-1.145-1.798-1.705 c-1.925-1.221-4.175-1.007-5.712,1.416c-1.375,2.165-0.955,4.343,1.209,5.717c0.754,0.479,1.648,0.843,2.277,0.949 L1777.736,552.716z"></path>
          <path d="M1757.67,566.663c0.724,0.277,2.078,0.98,3.313,1.764c1.491,0.947,2.314,1.672,2.805,2.636 c0.5,0.88,0.561,1.953-0.07,2.947c-0.602,0.946-1.722,1.472-3.221,1.175l-0.021,0.031c1.032,1.105,1.347,2.631,0.46,4.027 c-0.631,0.994-1.568,1.479-2.578,1.581c-1.182,0.126-2.721-0.354-4.871-1.719c-1.203-0.764-2.051-1.413-2.545-1.839 L1757.67,566.663z M1754.434,577.118c0.21,0.201,0.499,0.384,0.916,0.648c1.106,0.702,2.359,0.891,3.082-0.249 c0.692-1.091-0.011-2.144-1.231-2.917l-0.833-0.529L1754.434,577.118z M1757.477,572.323l0.802,0.508 c1.299,0.825,2.309,0.723,2.818-0.08c0.519-0.817,0.168-1.646-0.939-2.35c-0.545-0.346-0.87-0.508-1.093-0.582L1757.477,572.323z"></path>
          <path d="M1736.112,605.246l-2.514,2.297l-2.535-1.608l10.164-8.715l3.193,2.025l-3.492,12.949l-2.63-1.67l0.927-3.304 L1736.112,605.246z M1740.017,605.157l0.781-2.721c0.231-0.754,0.558-1.694,0.795-2.422l-0.049-0.031 c-0.551,0.551-1.247,1.257-1.805,1.781l-2.113,1.877L1740.017,605.157z"></path>
        </g>
        <g>
          <path d="M2172.915,938.759l-3.4,0.182l-0.939-2.851l13.385-0.293l1.184,3.591l-10.91,7.798l-0.976-2.958l2.812-1.968 L2172.915,938.759z M2175.989,941.167l2.331-1.608c0.655-0.437,1.505-0.957,2.148-1.369l-0.018-0.055 c-0.775,0.075-1.761,0.181-2.523,0.233l-2.825,0.109L2175.989,941.167z"></path>
        </g>
        <g>
          <path d="M2255.231,1088.987c-0.328-0.464-0.831-1.612-1.088-3.13c-0.738-4.364,1.616-7.074,5.231-7.687 c4.308-0.729,7.206,1.939,7.853,5.762c0.251,1.479,0.142,2.654-0.035,3.204l-2.35-0.22c0.148-0.603,0.238-1.446,0.063-2.477 c-0.38-2.248-2.046-3.777-4.874-3.298c-2.529,0.428-3.867,2.196-3.439,4.725c0.149,0.88,0.476,1.788,0.818,2.327 L2255.231,1088.987z"></path>
        </g>
        <g>
          <path d="M226.931,948.719l2.606,2.19l-1.262,2.725l-9.974-8.933l1.589-3.431l13.295,1.762l-1.31,2.826l-3.396-0.484 L226.931,948.719z M226.33,944.86l-2.8-0.418c-0.777-0.129-1.753-0.33-2.505-0.469l-0.024,0.053 c0.617,0.474,1.409,1.071,2.002,1.554l2.138,1.849L226.33,944.86z"></path>
        </g>
        <g>
          <path d="M147.533,1071.266c0.155,0.548,0.245,1.798-0.021,3.313c-0.762,4.361-3.886,6.129-7.498,5.497 c-4.304-0.753-6.144-4.236-5.477-8.055c0.259-1.478,0.754-2.549,1.104-3.009l2.142,0.993c-0.341,0.518-0.707,1.283-0.888,2.313 c-0.393,2.246,0.667,4.243,3.493,4.737c2.526,0.441,4.378-0.777,4.819-3.304c0.153-0.879,0.149-1.845,0.008-2.468 L147.533,1071.266z"></path>
        </g>
      </g>
    </g>
    
  </g>
  <g id="Balcao_Simples_Setor_3">
    <g id="Balcao_Simples_Setor_3_Area_de_Assentos" data-seatarea="true">
     
      <g id="Balcao_Simples_Setor_3_Legendas">
        <text transform="matrix(0.7351 -0.678 0.678 0.7351 261.9355 1155.2329)" fill="#000000" font-family="'MyriadPro-Bold'" font-size="24">Balcão Simples</text>
        <text transform="matrix(0.7351 -0.678 0.678 0.7351 291.9355 1175.2329)" fill="#000000" font-family="'MyriadPro-Bold'" font-size="24">Setor 3</text>
        <g>
          <path d="M733.896,624.363c0.679-0.841,1.662-1.823,2.752-2.77c1.85-1.608,3.315-2.354,4.844-2.45 c1.651-0.127,3.329,0.529,4.824,2.25c1.607,1.849,2.044,3.711,1.813,5.297c-0.283,1.73-1.496,3.491-3.389,5.136 c-1.133,0.985-2.012,1.624-2.604,2.013L733.896,624.363z M742.919,630.339c0.224-0.12,0.538-0.394,0.797-0.618 c2.005-1.718,2.362-3.942,0.355-6.25c-1.808-2.078-3.844-2.045-5.735-0.399c-0.473,0.411-0.766,0.741-0.914,0.946 L742.919,630.339z"></path>
        </g>
        <g>
          <path d="M1672.411,616.149c0.961,0.494,2.123,1.258,3.271,2.133c1.949,1.485,2.977,2.771,3.379,4.248 c0.459,1.592,0.156,3.367-1.225,5.18c-1.485,1.949-3.221,2.754-4.82,2.848c-1.752,0.074-3.721-0.758-5.716-2.277 c-1.194-0.91-1.998-1.641-2.499-2.143L1672.411,616.149z M1668.388,626.195c0.162,0.194,0.494,0.448,0.767,0.655 c2.089,1.615,4.339,1.516,6.192-0.918c1.67-2.19,1.225-4.178-0.77-5.697c-0.5-0.381-0.881-0.6-1.111-0.704L1668.388,626.195z"></path>
        </g>
        <g>
          <path d="M2089.303,1159.203l-3.36-0.553l-0.307-2.986l13.137,2.585l0.387,3.762l-12.329,5.276l-0.318-3.1l3.167-1.318 L2089.303,1159.203z M2091.789,1162.214l2.622-1.071c0.734-0.286,1.674-0.612,2.392-0.876l-0.006-0.058 c-0.772-0.093-1.758-0.201-2.515-0.313l-2.782-0.498L2091.789,1162.214z"></path>
        </g>
        <g>
          <path d="M2149.9,1251.854c0.208,0.746,0.459,2.252,0.571,3.711c0.135,1.762,0.047,2.854-0.432,3.824 c-0.404,0.926-1.229,1.617-2.402,1.709c-1.117,0.086-2.209-0.498-2.869-1.875l-0.037,0.002c-0.268,1.488-1.301,2.654-2.949,2.781 c-1.174,0.09-2.125-0.371-2.812-1.119c-0.809-0.871-1.345-2.393-1.54-4.93c-0.109-1.422-0.096-2.488-0.052-3.141L2149.9,1251.854 z M2139.588,1255.524c-0.034,0.289-0.007,0.631,0.03,1.123c0.101,1.307,0.7,2.422,2.045,2.318c1.288-0.1,1.711-1.293,1.6-2.732 l-0.075-0.984L2139.588,1255.524z M2145.251,1255.089l0.072,0.947c0.119,1.535,0.805,2.281,1.753,2.209 c0.966-0.074,1.42-0.852,1.319-2.16c-0.049-0.643-0.115-1-0.189-1.223L2145.251,1255.089z"></path>
        </g>
        <g>
          <path d="M348.42,1167.063l3.079,1.454l-0.526,2.955l-11.92-6.096l0.662-3.723l13.305-1.684l-0.546,3.066l-3.408,0.397 L348.42,1167.063z M346.856,1163.483l-2.814,0.311c-0.785,0.072-1.778,0.127-2.542,0.184l-0.01,0.057 c0.718,0.302,1.636,0.678,2.331,0.994l2.539,1.242L346.856,1163.483z"></path>
        </g>
        <g>
          <path d="M273.427,1268.132c-0.057-0.773,0-2.299,0.182-3.75c0.22-1.752,0.524-2.806,1.188-3.66 c0.582-0.827,1.526-1.341,2.696-1.194c1.111,0.14,2.064,0.929,2.436,2.411l0.037,0.006c0.56-1.405,1.806-2.341,3.446-2.135 c1.168,0.146,2.007,0.788,2.529,1.657c0.619,1.016,0.841,2.612,0.524,5.14c-0.178,1.413-0.403,2.457-0.578,3.086 L273.427,1268.132z M278.628,1265.892l0.118-0.941c0.19-1.527-0.332-2.396-1.274-2.515c-0.961-0.12-1.562,0.55-1.725,1.851 c-0.08,0.641-0.088,1.004-0.06,1.237L278.628,1265.892z M284.264,1266.599c0.092-0.276,0.135-0.615,0.195-1.105 c0.163-1.301-0.201-2.514-1.539-2.682c-1.282-0.16-1.936,0.925-2.115,2.357l-0.122,0.98L284.264,1266.599z"></path>
        </g>
      </g>
    </g>
    
  </g>
  <g id="Balcao_Simples_Setor_2">
    <g id="Balcao_Simples_Setor_2_Area_de_Assentos" data-seatarea="true">
     
      <g id="Balcao_Simples_Setor_2_Legendas">
        <text transform="matrix(1 0 0 1 1112.9551 620.5801)" fill="#000000" font-family="'MyriadPro-Bold'" font-size="18">Balcão Simples - Setor 2</text>
        <g>
          <path d="M774.755,655.836c-0.226,0.522-0.943,1.55-2.104,2.56c-3.34,2.905-6.881,2.308-9.286-0.46 c-2.867-3.297-2.099-7.161,0.826-9.705c1.132-0.984,2.192-1.503,2.753-1.639l1.037,2.12c-0.592,0.188-1.358,0.551-2.146,1.237 c-1.721,1.496-2.158,3.714-0.275,5.879c1.683,1.935,3.889,2.156,5.824,0.473c0.674-0.586,1.278-1.339,1.561-1.911 L774.755,655.836z"></path>
          <path d="M782.391,679.05c0.473-0.613,1.533-1.711,2.637-2.671c1.333-1.159,2.263-1.741,3.326-1.936 c0.986-0.227,2.033,0.021,2.805,0.91c0.736,0.846,0.92,2.07,0.206,3.421l0.024,0.029c1.354-0.673,2.906-0.539,3.991,0.709 c0.772,0.889,0.97,1.926,0.778,2.923c-0.216,1.169-1.117,2.507-3.039,4.177c-1.074,0.935-1.939,1.562-2.488,1.914L782.391,679.05 z M787.759,680.852l0.716-0.623c1.162-1.01,1.354-2.006,0.729-2.723c-0.636-0.731-1.53-0.632-2.521,0.229 c-0.486,0.423-0.734,0.688-0.869,0.881L787.759,680.852z M791.486,685.138c0.252-0.144,0.51-0.369,0.883-0.693 c0.988-0.86,1.526-2.007,0.641-3.024c-0.848-0.975-2.058-0.602-3.147,0.346l-0.745,0.648L791.486,685.138z"></path>
          <path d="M813.209,710.729l1.482,3.065l-2.266,1.97l-5.447-12.229l2.854-2.481l11.411,7.044l-2.351,2.044l-2.902-1.832 L813.209,710.729z M814.239,706.962l-2.385-1.526c-0.656-0.437-1.464-1.018-2.094-1.453l-0.044,0.038 c0.37,0.686,0.848,1.554,1.191,2.237l1.195,2.562L814.239,706.962z"></path>
        </g>
        <g>
          <path d="M1651.202,660.181c-0.557-0.115-1.709-0.609-2.933-1.543c-3.521-2.682-3.653-6.27-1.432-9.187 c2.647-3.476,6.588-3.507,9.671-1.157c1.193,0.909,1.916,1.842,2.163,2.363l-1.866,1.445c-0.303-0.541-0.814-1.219-1.646-1.852 c-1.813-1.381-4.073-1.361-5.813,0.922c-1.554,2.039-1.323,4.245,0.717,5.799c0.71,0.541,1.569,0.98,2.187,1.142 L1651.202,660.181z"></path>
          <path d="M1630.017,672.36c0.697,0.34,1.986,1.154,3.15,2.041c1.404,1.07,2.163,1.863,2.568,2.865 c0.423,0.92,0.393,1.994-0.322,2.932c-0.68,0.891-1.84,1.318-3.309,0.895l-0.022,0.029c0.933,1.189,1.116,2.736,0.114,4.052 c-0.715,0.937-1.69,1.339-2.705,1.354c-1.189,0.025-2.682-0.586-4.707-2.129c-1.133-0.864-1.921-1.584-2.377-2.051 L1630.017,672.36z M1625.897,682.501c0.191,0.217,0.465,0.424,0.857,0.725c1.043,0.793,2.275,1.088,3.092,0.016 c0.783-1.028,0.173-2.139-0.977-3.014l-0.785-0.598L1625.897,682.501z M1629.34,677.982l0.755,0.575 c1.225,0.934,2.238,0.918,2.814,0.162c0.588-0.771,0.309-1.627-0.734-2.422c-0.514-0.392-0.823-0.58-1.039-0.673L1629.34,677.982 z"></path>
          <path d="M1605.238,708.958l-2.702,2.072l-2.387-1.818l10.872-7.813l3.007,2.292l-4.586,12.602l-2.479-1.889l1.206-3.212 L1605.238,708.958z M1609.136,709.204l1.012-2.645c0.294-0.731,0.699-1.641,0.998-2.345l-0.046-0.035 c-0.597,0.501-1.351,1.146-1.95,1.619l-2.266,1.688L1609.136,709.204z"></path>
        </g>
      </g>
    </g>
    
  </g>
  <g id="Foyer_Setor_3">
    <g id="Foyer_Setor_3_Area_de_Assentos" data-seatarea="true">
     
      <g id="Foyer_Setor_3_Legendas">
        <text transform="matrix(-0.0482 0.9988 -0.9988 -0.0482 1950.9521 1724.812)" fill="#000000" font-family="'MyriadPro-Bold'" font-size="18">Foyer - Setor 3</text>
        <g>
          <path d="M1979.934,1415.972c0.143,0.762,0.26,2.283,0.243,3.746c-0.02,1.766-0.202,2.848-0.764,3.771 c-0.484,0.888-1.365,1.505-2.543,1.492c-1.121-0.013-2.158-0.689-2.694-2.12l-0.038-0.001c-0.396,1.459-1.528,2.529-3.182,2.512 c-1.178-0.013-2.084-0.555-2.702-1.359c-0.729-0.939-1.13-2.502-1.103-5.047c0.016-1.425,0.122-2.487,0.225-3.133 L1979.934,1415.972z M1969.339,1418.724c-0.06,0.285-0.063,0.627-0.068,1.121c-0.015,1.311,0.485,2.474,1.834,2.488 c1.292,0.015,1.817-1.139,1.833-2.582l0.011-0.987L1969.339,1418.724z M1975.019,1418.786l-0.01,0.949 c-0.018,1.539,0.601,2.344,1.551,2.354c0.969,0.011,1.49-0.724,1.504-2.036c0.008-0.645-0.026-1.006-0.081-1.234 L1975.019,1418.786z"></path>
        </g>
        <g>
          <path d="M1934.533,1420.797l-3.32-0.755l-0.125-2.999l12.955,3.375l0.158,3.777l-12.625,4.521l-0.13-3.113l3.241-1.125 L1934.533,1420.797z M1936.834,1423.952l2.68-0.911c0.751-0.24,1.71-0.509,2.442-0.729l-0.003-0.058 c-0.766-0.139-1.742-0.307-2.491-0.465l-2.747-0.665L1936.834,1423.952z"></path>
        </g>
        <g>
          <path d="M440.742,1428.64c-0.122-0.766-0.197-2.29-0.142-3.752c0.067-1.766,0.28-2.84,0.867-3.75 c0.509-0.873,1.405-1.467,2.582-1.421c1.121,0.043,2.139,0.747,2.635,2.192l0.038,0.002c0.437-1.447,1.597-2.486,3.249-2.424 c1.177,0.046,2.067,0.612,2.664,1.434c0.703,0.959,1.062,2.531,0.964,5.076c-0.055,1.423-0.19,2.482-0.31,3.124L440.742,1428.64z M445.731,1425.96l0.036-0.949c0.06-1.537-0.537-2.359-1.486-2.396c-0.968-0.037-1.509,0.683-1.56,1.993 c-0.024,0.646,0,1.008,0.048,1.237L445.731,1425.96z M451.407,1426.178c0.067-0.282,0.08-0.624,0.1-1.118 c0.05-1.31-0.418-2.486-1.766-2.538c-1.291-0.05-1.849,1.088-1.903,2.531l-0.038,0.986L451.407,1426.178z"></path>
        </g>
        <g>
          <path d="M485.948,1428.783l3.228,1.085l-0.178,2.998l-12.55-4.664l0.224-3.774l13.018-3.226l-0.185,3.109l-3.339,0.793 L485.948,1428.783z M483.979,1425.412l-2.761,0.636c-0.77,0.164-1.75,0.335-2.502,0.48l-0.003,0.057 c0.749,0.216,1.703,0.482,2.431,0.715l2.667,0.938L483.979,1425.412z"></path>
        </g>
      </g>
    </g>
    
  </g>
  <g id="Foyer_Setor_2">
    <g id="Foyer_Setor_2_Area_de_Assentos" data-seatarea="true">
     
      <g id="Foyer_Setor_2_Legendas">
          <text transform="matrix(0.4421 0.897 -0.897 0.4421 1920.5352 1087.3135)" fill="#000000" font-family="'MyriadPro-Bold'" font-size="18">Foyer - Setor 2</text>
        <g>
          <path d="M426.9,1270.747c-0.055-1.08,0.022-2.467,0.202-3.9c0.305-2.432,0.9-3.965,1.975-5.055 c1.146-1.197,2.834-1.827,5.096-1.543c2.431,0.305,3.998,1.4,4.884,2.737c0.943,1.478,1.213,3.598,0.9,6.086 c-0.187,1.49-0.415,2.553-0.597,3.237L426.9,1270.747z M437.608,1269.181c0.087-0.238,0.139-0.652,0.182-0.992 c0.348-2.617-0.869-4.514-3.904-4.895c-2.732-0.342-4.228,1.041-4.54,3.528c-0.078,0.622-0.075,1.063-0.05,1.314 L437.608,1269.181z"></path>
        </g>
        <g>
          <path d="M1994.763,1279.339c0.326,1.031,0.601,2.393,0.788,3.824c0.318,2.43,0.13,4.064-0.635,5.391 c-0.808,1.447-2.281,2.482-4.541,2.779c-2.43,0.318-4.223-0.348-5.417-1.418c-1.285-1.191-2.082-3.176-2.408-5.662 c-0.194-1.488-0.242-2.574-0.239-3.283L1994.763,1279.339z M1984.796,1283.558c-0.023,0.252,0.031,0.666,0.075,1.004 c0.323,2.621,1.979,4.148,5.013,3.752c2.73-0.357,3.828-2.074,3.502-4.561c-0.081-0.621-0.194-1.047-0.283-1.285 L1984.796,1283.558z"></path>
        </g>
      </g>
    </g>
    
  </g>
  <g id="Foyer_Setor_1">
    <g id="Foyer_Setor_1_Area_de_Assentos" data-seatarea="true">
     
      <g id="Foyer_Setor_1_Legendas">
          <text transform="matrix(1 0 0 1 1142.6221 805.5801)" fill="#000000" font-family="'MyriadPro-Bold'" font-size="18">Foyer - Setor 1</text>
        <g>
          <path d="M1619.749,788.567c0.973,0.47,2.152,1.205,3.322,2.051c1.985,1.438,3.045,2.696,3.483,4.163 c0.499,1.58,0.239,3.362-1.097,5.21c-1.436,1.984-3.15,2.832-4.748,2.965c-1.749,0.117-3.738-0.665-5.771-2.135 c-1.216-0.881-2.038-1.592-2.552-2.08L1619.749,788.567z M1615.975,798.71c0.167,0.19,0.505,0.436,0.782,0.636 c2.128,1.563,4.375,1.407,6.168-1.071c1.615-2.23,1.121-4.207-0.91-5.677c-0.508-0.368-0.896-0.577-1.129-0.676L1615.975,798.71z"></path>
          <path d="M1600.536,832.768c-0.561-0.101-1.723-0.567-2.97-1.47c-3.587-2.594-3.808-6.178-1.658-9.148 c2.562-3.539,6.499-3.668,9.64-1.396c1.215,0.88,1.961,1.794,2.221,2.31l-1.83,1.49c-0.316-0.533-0.844-1.197-1.691-1.811 c-1.846-1.336-4.105-1.259-5.787,1.066c-1.504,2.077-1.219,4.275,0.859,5.779c0.723,0.523,1.594,0.941,2.215,1.086 L1600.536,832.768z"></path>
          <path d="M1579.658,845.468c0.704,0.322,2.015,1.105,3.2,1.963c1.431,1.035,2.207,1.809,2.639,2.801 c0.445,0.908,0.44,1.984-0.25,2.938c-0.657,0.908-1.809,1.365-3.285,0.977l-0.023,0.031c0.963,1.165,1.184,2.707,0.215,4.047 c-0.69,0.954-1.656,1.381-2.67,1.421c-1.188,0.055-2.695-0.521-4.758-2.013c-1.154-0.835-1.961-1.535-2.428-1.99 L1579.658,845.468z M1575.791,855.706c0.197,0.213,0.475,0.414,0.875,0.703c1.062,0.769,2.3,1.033,3.091-0.061 c0.758-1.047,0.12-2.141-1.051-2.988l-0.799-0.578L1575.791,855.706z M1579.12,851.104l0.77,0.557 c1.246,0.902,2.261,0.862,2.818,0.092c0.567-0.784,0.268-1.634-0.795-2.402c-0.523-0.379-0.838-0.559-1.055-0.646 L1579.12,851.104z"></path>
          <path d="M1555.791,882.667l-2.649,2.14l-2.432-1.76l10.676-8.079l3.063,2.216l-4.273,12.712l-2.523-1.826l1.126-3.242 L1555.791,882.667z M1559.692,882.817l0.947-2.669c0.275-0.738,0.658-1.657,0.939-2.368l-0.047-0.034 c-0.584,0.515-1.32,1.178-1.908,1.667l-2.225,1.744L1559.692,882.817z"></path>
        </g>
        <g>
          <path d="M779.366,794.597c0.696-0.826,1.702-1.787,2.812-2.71c1.885-1.567,3.367-2.281,4.896-2.343 c1.654-0.091,3.316,0.602,4.775,2.354c1.566,1.884,1.961,3.755,1.695,5.336c-0.32,1.724-1.572,3.457-3.5,5.061 c-1.154,0.96-2.047,1.58-2.648,1.957L779.366,794.597z M788.256,800.768c0.227-0.114,0.548-0.382,0.811-0.601 c2.042-1.673,2.448-3.89,0.492-6.241c-1.761-2.117-3.798-2.129-5.726-0.525c-0.481,0.401-0.781,0.725-0.935,0.926 L788.256,800.768z"></path>
          <path d="M817.422,824.17c-0.236,0.518-0.977,1.529-2.16,2.513c-3.402,2.831-6.929,2.157-9.273-0.663 c-2.795-3.359-1.942-7.206,1.037-9.684c1.154-0.959,2.225-1.456,2.789-1.579l0.99,2.142c-0.596,0.174-1.37,0.521-2.174,1.189 c-1.752,1.458-2.238,3.666-0.402,5.872c1.639,1.972,3.84,2.241,5.813,0.601c0.686-0.571,1.307-1.31,1.602-1.876L817.422,824.17z"></path>
          <path d="M824.548,847.545c0.487-0.602,1.57-1.677,2.695-2.613c1.358-1.13,2.3-1.691,3.368-1.862 c0.99-0.206,2.031,0.065,2.783,0.971c0.717,0.862,0.874,2.09,0.131,3.425l0.025,0.029c1.367-0.644,2.916-0.475,3.973,0.796 c0.754,0.905,0.928,1.947,0.715,2.939c-0.241,1.164-1.172,2.481-3.129,4.109c-1.096,0.911-1.974,1.519-2.531,1.859 L824.548,847.545z M829.876,849.464l0.729-0.607c1.184-0.984,1.396-1.977,0.788-2.707c-0.62-0.745-1.517-0.666-2.524,0.173 c-0.496,0.413-0.75,0.673-0.889,0.863L829.876,849.464z M833.508,853.831c0.256-0.139,0.519-0.357,0.898-0.673 c1.008-0.838,1.57-1.973,0.707-3.01c-0.826-0.993-2.044-0.646-3.154,0.277l-0.759,0.631L833.508,853.831z"></path>
          <path d="M854.668,879.892l1.414,3.097l-2.308,1.92l-5.179-12.346l2.906-2.418l11.254,7.292l-2.395,1.992l-2.861-1.895 L854.668,879.892z M855.779,876.149l-2.351-1.579c-0.646-0.451-1.441-1.049-2.062-1.498l-0.044,0.037 c0.354,0.693,0.813,1.572,1.142,2.263l1.139,2.587L855.779,876.149z"></path>
        </g>
      </g>
    </g>
    
  </g>
 
  <g id="Balcao_Nobre_Setor_1">
    <g id="Balcao_Nobre_Setor_1_Area_de_Assentos" data-seatarea="true">
     
      <g id="Balcao_Nobre_Setor_1_Legendas">
          <text transform="matrix(0.334 -0.9426 0.9426 0.334 600.9189 1325.0547)" fill="#000000" font-family="'MyriadPro-Bold'" font-size="18">Balcão Nobre - Setor 1</text>
        <g>
          <path d="M580.536,1365.071c0.261,0.506,0.598,1.714,0.64,3.252c0.12,4.425-2.591,6.779-6.257,6.878 c-4.367,0.119-6.862-2.93-6.968-6.805c-0.041-1.499,0.23-2.647,0.482-3.167l2.297,0.546c-0.231,0.576-0.438,1.399-0.409,2.443 c0.062,2.279,1.496,4.026,4.364,3.948c2.563-0.069,4.137-1.633,4.066-4.196c-0.024-0.893-0.221-1.837-0.483-2.419 L580.536,1365.071z"></path>
          <path d="M603.312,1373.927c-0.173-0.755-0.347-2.271-0.387-3.733c-0.048-1.766,0.094-2.854,0.619-3.798 c0.45-0.905,1.308-1.557,2.485-1.588c1.12-0.031,2.182,0.605,2.772,2.015l0.037-0.001c0.34-1.473,1.431-2.586,3.083-2.631 c1.178-0.031,2.104,0.476,2.752,1.257c0.766,0.909,1.226,2.456,1.295,5.001c0.039,1.424-0.027,2.489-0.104,3.138 L603.312,1373.927z M608.116,1370.927l-0.026-0.949c-0.042-1.538-0.69-2.318-1.641-2.293c-0.968,0.026-1.46,0.78-1.425,2.091 c0.018,0.646,0.065,1.006,0.129,1.232L608.116,1370.927z M613.793,1370.772c0.049-0.286,0.039-0.628,0.025-1.122 c-0.035-1.311-0.579-2.454-1.928-2.418c-1.291,0.035-1.772,1.207-1.733,2.651l0.027,0.987L613.793,1370.772z"></path>
          <path d="M647.357,1370.261l3.309,0.803l0.082,3.001l-12.905-3.564l-0.103-3.779l12.69-4.335l0.085,3.113l-3.259,1.077 L647.357,1370.261z M645.103,1367.071l-2.694,0.871c-0.754,0.229-1.715,0.484-2.451,0.694l0.002,0.058 c0.764,0.149,1.737,0.332,2.483,0.502l2.737,0.705L645.103,1367.071z"></path>
        </g>
        <g>
          <path d="M1831.047,1367.437c-0.279-0.496-0.66-1.689-0.758-3.226c-0.282-4.418,2.339-6.869,5.999-7.104 c4.36-0.279,6.967,2.676,7.214,6.544c0.096,1.498-0.135,2.654-0.366,3.183l-2.314-0.461c0.209-0.584,0.386-1.414,0.319-2.457 c-0.146-2.275-1.645-3.968-4.508-3.786c-2.559,0.164-4.072,1.784-3.909,4.344c0.058,0.891,0.288,1.828,0.573,2.4 L1831.047,1367.437z"></path>
          <path d="M1807.961,1359.424c0.199,0.749,0.43,2.258,0.524,3.718c0.112,1.763,0.012,2.854-0.48,3.818 c-0.417,0.921-1.249,1.603-2.425,1.678c-1.119,0.072-2.203-0.525-2.845-1.912l-0.038,0.002c-0.285,1.485-1.334,2.637-2.982,2.743 c-1.178,0.075-2.121-0.398-2.798-1.155c-0.798-0.881-1.315-2.409-1.478-4.95c-0.091-1.421-0.064-2.489-0.01-3.14 L1807.961,1359.424z M1797.604,1362.962c-0.039,0.288-0.018,0.63,0.014,1.123c0.085,1.308,0.671,2.431,2.017,2.345 c1.288-0.083,1.727-1.271,1.635-2.713l-0.063-0.985L1797.604,1362.962z M1803.272,1362.599l0.06,0.948 c0.099,1.535,0.775,2.292,1.724,2.231c0.966-0.062,1.43-0.834,1.347-2.143c-0.041-0.644-0.102-1.001-0.174-1.225 L1803.272,1362.599z"></path>
          <path d="M1764.081,1364.707l-3.337-0.681l-0.192-2.996l13.029,3.087l0.24,3.774l-12.523,4.799l-0.199-3.109l3.218-1.196 L1764.081,1364.707z M1766.449,1367.811l2.66-0.969c0.744-0.258,1.697-0.548,2.425-0.783l-0.003-0.058 c-0.77-0.123-1.75-0.27-2.502-0.411l-2.76-0.604L1766.449,1367.811z"></path>
        </g>
      </g>
    </g>
    
  </g>
  <g id="Camarotes">
    <g id="Camarotes_Area_de_Assentos" data-seatarea="true">
     
      <g id="Camarotes_Legendas">
          <text transform="matrix(1 0 0 1 1149.978 854.5801)" fill="#00000" font-family="'MyriadPro-Bold'" font-size="24">Camarotes</text>
        <g>
          <path d="M1205.065,873.737h-0.038l-2.355,1.12l-0.475-2.165l3.287-1.521h2.375v12.349h-2.793V873.737z"></path>
        </g>
        <g>
          <path d="M1360.292,897.577c0.426,0.404,1.447,1.16,2.588,1.453c1.453,0.375,2.369-0.136,2.597-1.018 c0.309-1.196-0.731-2.033-1.945-2.346l-1.141-0.294l0.517-2.005l1.085,0.279c0.938,0.242,2.21,0.178,2.471-0.834 c0.186-0.718-0.247-1.398-1.442-1.706c-0.976-0.251-2.115-0.094-2.669,0.077l-0.05-2.171c0.837-0.275,2.367-0.352,3.932,0.052 c2.537,0.653,3.607,2.362,3.186,3.999c-0.326,1.269-1.304,2.097-2.904,2.214l-0.01,0.037c1.369,0.627,2.248,2.011,1.84,3.593 c-0.54,2.098-2.797,3.164-5.831,2.382c-1.546-0.398-2.747-1.139-3.338-1.742L1360.292,897.577z"></path>
        </g>
        <g>
          <path d="M1053.886,900.454l-0.424-1.696l1.185-1.764c2.046-3.018,2.981-4.682,2.651-6.087c-0.244-0.977-1.01-1.608-2.392-1.263 c-1.032,0.258-1.807,0.999-2.318,1.618l-1.29-1.793c0.715-0.903,1.996-1.811,3.599-2.211c2.728-0.682,4.598,0.535,5.142,2.711 c0.502,2.009-0.535,3.971-1.898,5.957l-0.876,1.197l0.009,0.037l4.533-1.132l0.576,2.305L1053.886,900.454z"></path>
        </g>
        <g>
          <path d="M946.458,936.882l-1.092-2.734l-5.081,2.027l-0.697-1.747l1.534-8.712l3.299-1.316l2.684,6.723l1.358-0.542l0.803,2.012 l-1.358,0.542l1.091,2.734L946.458,936.882z M944.563,932.136l-1.014-2.541c-0.274-0.688-0.521-1.408-0.781-2.163l-0.054,0.021 c-0.074,0.889-0.124,1.686-0.224,2.564l-0.518,3.111l-0.004,0.042L944.563,932.136z"></path>
        </g>
        <g>
          <path d="M859.833,971.116c-0.271,0.179-0.533,0.397-0.877,0.701c-1.943,1.684-2.063,3.432-1.47,4.768l0.046-0.034 c0.123-0.851,0.609-1.663,1.523-2.344c1.66-1.237,3.936-1.108,5.467,0.949c1.465,1.966,1.16,4.704-0.973,6.293 c-2.651,1.975-5.41,0.975-7.17-1.388c-1.385-1.858-1.855-3.923-1.523-5.734c0.305-1.626,1.248-3.063,2.73-4.285 c0.393-0.364,0.693-0.564,0.918-0.708L859.833,971.116z M862.247,979.764c0.808-0.601,0.77-1.733,0.021-2.739 c-0.681-0.914-1.759-1.344-2.748-0.606c-0.625,0.466-0.858,1.233-0.71,1.879c0.026,0.194,0.133,0.399,0.337,0.673 c0.828,1.017,2.034,1.587,3.086,0.804L862.247,979.764z"></path>
        </g>
        <g>
          <path d="M792.218,1029.806c2.129-1.951,4.141-1.527,5.154-0.42c0.719,0.784,1.004,1.939,0.505,3.223l0.038,0.041 c1.205-0.484,2.682-0.446,3.746,0.716c1.516,1.653,1.154,4.044-0.96,5.981c-2.312,2.118-4.569,1.79-5.699,0.558 c-1.001-1.093-1.063-2.427-0.467-3.771l-0.025-0.028c-1.306,0.346-2.421,0.001-3.152-0.797c-1.411-1.541-0.961-3.834,0.847-5.489 L792.218,1029.806z M793.47,1031.313c-0.729,0.667-0.645,1.491-0.131,2.052c0.564,0.616,1.471,0.509,2.404,0.064 c0.361-0.59,0.385-1.436-0.128-1.995c-0.526-0.575-1.362-0.84-2.132-0.134L793.47,1031.313z M799.451,1037.786 c0.743-0.68,0.798-1.632,0.208-2.276c-0.732-0.798-1.771-0.724-2.803-0.19c-0.52,0.838-0.465,1.715,0.139,2.373 c0.589,0.671,1.658,0.825,2.441,0.107L799.451,1037.786z"></path>
        </g>
        <g>
          <path d="M734.577,1094.958l-0.028,0.025l-0.966,2.424l-1.82-1.266l1.377-3.35l1.741-1.613l8.395,9.057l-2.048,1.898 L734.577,1094.958z"></path>
          <path d="M749.66,1094.602c-2.341,2.169-5.321,1.022-7.712-1.53c-2.439-2.633-3.252-5.715-0.91-7.885 c2.41-2.233,5.374-0.965,7.672,1.515c2.584,2.786,3.25,5.769,0.965,7.888L749.66,1094.602z M748.204,1092.974 c0.821-0.762,0.311-2.207-1.6-4.269c-1.859-2.007-3.273-2.664-4.123-1.877c-0.794,0.736-0.354,2.218,1.545,4.267 c1.924,2.102,3.355,2.641,4.164,1.892L748.204,1092.974z"></path>
        </g>
        <g>
          <path d="M1477.858,924.067l-4.527-1.563l-0.864,1.69c0.257,0.069,0.479,0.126,0.767,0.225c1.113,0.385,2.176,1.032,2.78,1.904 c0.675,0.896,0.878,2.053,0.4,3.436c-0.75,2.172-3.28,3.449-6.423,2.363c-1.418-0.489-2.492-1.222-3.021-1.786l1.209-1.873 c0.417,0.425,1.364,1.114,2.424,1.479c1.131,0.391,2.521,0.267,2.948-0.973c0.422-1.221-0.276-2.285-2.61-3.091 c-0.646-0.223-1.108-0.343-1.6-0.431l2.862-5.847l6.429,2.22L1477.858,924.067z"></path>
        </g>
        <g>
          <path d="M1563.26,970.733l-1.005,1.5l-10.094,5.932l-2.542-1.701l9.757-5.426l0.021-0.032l-4.705-3.148l1.32-1.974 L1563.26,970.733z"></path>
        </g>
        <g>
          <path d="M1615.839,1034.224c0.248,0.294,0.488,0.48,0.941,0.828c0.695,0.563,1.541,0.953,2.342,1.051 c0.964,0.141,1.902-0.121,2.675-0.681l-0.016-0.04c-0.806,0.051-1.616-0.234-2.472-0.988c-1.567-1.381-1.926-3.619-0.33-5.43 c1.595-1.811,4.393-2.055,6.432-0.259c2.38,2.097,1.898,4.914-0.01,7.081c-1.709,1.938-3.553,2.795-5.367,2.843 c-1.6,0.034-3.201-0.619-4.705-1.843c-0.382-0.285-0.74-0.626-0.984-0.867L1615.839,1034.224z M1623.944,1030.226 c-0.727-0.641-1.846-0.463-2.699,0.506c-0.704,0.799-0.865,1.873,0.006,2.639c0.611,0.54,1.25,0.621,1.752,0.482 c0.197-0.081,0.352-0.199,0.59-0.469c0.881-0.971,1.35-2.279,0.367-3.146L1623.944,1030.226z"></path>
        </g>
        <g>
          <path d="M1674.263,1086.732l-0.027-0.025l-2.49-0.779l1.123-1.911l3.444,1.118l1.742,1.613l-8.392,9.06l-2.049-1.897 L1674.263,1086.732z"></path>
          <path d="M1681.999,1093.898l-0.028-0.025l-2.489-0.779l1.123-1.911l3.443,1.118l1.743,1.613l-8.392,9.06l-2.049-1.897 L1681.999,1093.898z"></path>
        </g>
      </g>
    </g>
    
  </g>
  <g id="Frisas_Setor_2">
    <g id="Frisas_Setor_2_Area_de_Assentos" data-seatarea="true">
     
      <g id="Frisas_Setor_2_Legendas">
          <text transform="matrix(-0.1305 -0.9915 0.9915 -0.1305 750.999 1680.9385)" fill="#000000" font-family="'MyriadPro-Bold'" font-size="18">Frisas - Setor 2</text>
        <g>
          <path d="M756.842,1504.036l-0.021,0.031l-0.342,2.586l-2.076-0.78l0.515-3.585l1.292-1.992l10.358,6.724l-1.521,2.343 L756.842,1504.036z"></path>
          <path d="M768.792,1503.593l-1.466-0.952l-0.337-2.099c-0.561-3.603-1.01-5.457-2.21-6.258c-0.846-0.549-1.835-0.489-2.61,0.705 c-0.579,0.893-0.641,1.963-0.594,2.764l-2.165-0.432c-0.094-1.148,0.225-2.686,1.124-4.072c1.53-2.357,3.729-2.743,5.61-1.522 c1.736,1.127,2.315,3.271,2.672,5.653l0.176,1.473l0.031,0.021l2.545-3.92l1.992,1.293L768.792,1503.593z"></path>
        </g>
        <g>
          <path d="M762.842,1574.036l-0.021,0.031l-0.342,2.586l-2.076-0.78l0.515-3.585l1.292-1.992l10.358,6.724l-1.521,2.343 L762.842,1574.036z"></path>
          <path d="M777.564,1569.321l-2.47-1.603l-2.979,4.589l-1.578-1.023l-3.776-8l1.934-2.98l6.072,3.941l0.796-1.227l1.817,1.179 l-0.797,1.228l2.469,1.603L777.564,1569.321z M773.277,1566.54l-2.294-1.49c-0.622-0.402-1.239-0.849-1.888-1.314l-0.03,0.047 c0.452,0.77,0.871,1.449,1.298,2.225l1.373,2.838l0.021,0.037L773.277,1566.54z"></path>
        </g>
        <g>
          <path d="M773.842,1645.036l-0.021,0.031l-0.342,2.586l-2.076-0.78l0.515-3.585l1.292-1.992l10.358,6.724l-1.521,2.343 L773.842,1645.036z"></path>
          <path d="M781.438,1632.39c-0.191,0.26-0.362,0.558-0.578,0.961c-1.237,2.254-0.742,3.935,0.277,4.981l0.031-0.048 c-0.18-0.842-0.007-1.771,0.613-2.727c1.127-1.738,3.307-2.407,5.458-1.01c2.056,1.334,2.72,4.008,1.272,6.238 c-1.8,2.772-4.734,2.793-7.204,1.189c-1.944-1.262-3.104-3.033-3.421-4.848c-0.279-1.63,0.106-3.305,1.071-4.966 c0.241-0.478,0.454-0.771,0.614-0.983L781.438,1632.39z M786.706,1639.659c0.548-0.845,0.119-1.893-0.933-2.575 c-0.956-0.62-2.115-0.649-2.787,0.387c-0.425,0.653-0.377,1.454-0.014,2.009c0.093,0.172,0.264,0.328,0.55,0.514 c1.131,0.666,2.46,0.781,3.173-0.318L786.706,1639.659z"></path>
        </g>
        <g>
          <path d="M763.842,1744.036l-0.021,0.031l-0.342,2.586l-2.076-0.78l0.515-3.585l1.292-1.992l10.358,6.724l-1.521,2.343 L763.842,1744.036z"></path>
          <path d="M767.74,1732.931c1.572-2.422,3.627-2.516,4.887-1.698c0.893,0.579,1.457,1.626,1.295,2.993l0.048,0.03 c1.045-0.771,2.485-1.104,3.807-0.247c1.881,1.221,2.132,3.626,0.569,6.032c-1.706,2.629-3.974,2.878-5.376,1.968 c-1.243-0.807-1.638-2.082-1.397-3.534l-0.032-0.021c-1.177,0.662-2.343,0.608-3.251,0.02c-1.752-1.138-1.893-3.471-0.559-5.527 L767.74,1732.931z M769.331,1734.076c-0.538,0.828-0.249,1.604,0.388,2.019c0.701,0.455,1.552,0.123,2.344-0.54 c0.203-0.661,0.014-1.485-0.623-1.899c-0.654-0.424-1.529-0.472-2.098,0.404L769.331,1734.076z M776.745,1738.843 c0.548-0.844,0.363-1.779-0.37-2.255c-0.908-0.59-1.895-0.257-2.76,0.519c-0.293,0.941-0.021,1.775,0.729,2.262 c0.738,0.502,1.813,0.383,2.391-0.51L776.745,1738.843z"></path>
        </g>
        <g>
          <path d="M1651.563,1491.839l-0.02-0.032l-2.211-1.384l1.571-1.564l3.048,1.955l1.275,2.003l-10.414,6.634l-1.501-2.355 L1651.563,1491.839z"></path>
          <path d="M1657.229,1500.733l-0.021-0.033l-2.21-1.385l1.57-1.563l3.049,1.955l1.275,2.002l-10.416,6.635l-1.5-2.355 L1657.229,1500.733z"></path>
        </g>
        <g>
          <path d="M1660.563,1585.839l-0.02-0.032l-2.211-1.384l1.571-1.564l3.048,1.955l1.275,2.003l-10.414,6.634l-1.501-2.355 L1660.563,1585.839z"></path>
          <path d="M1658.661,1595.792c0.035,0.586,0.267,1.835,0.899,2.828c0.806,1.266,1.824,1.519,2.593,1.029 c1.041-0.664,0.854-1.985,0.18-3.043l-0.633-0.993l1.746-1.112l0.603,0.945c0.521,0.817,1.493,1.639,2.375,1.077 c0.625-0.397,0.773-1.19,0.11-2.231c-0.541-0.85-1.48-1.513-2.004-1.766l1.447-1.619c0.799,0.369,1.969,1.357,2.836,2.721 c1.409,2.211,1.024,4.189-0.401,5.098c-1.104,0.704-2.384,0.641-3.634-0.365l-0.031,0.02c0.57,1.394,0.27,3.004-1.109,3.883 c-1.826,1.163-4.203,0.402-5.887-2.242c-0.857-1.346-1.23-2.707-1.25-3.551L1658.661,1595.792z"></path>
        </g>
      </g>
    </g>
    
  </g>
  <g id="Frisas_Setor_1">
    <g id="Frisas_Setor_1_Area_de_Assentos" data-seatarea="true">
     
      <g id="Frisas_Setor_1_Legendas">
          <text transform="matrix(0.4368 -0.8996 0.8996 0.4368 825.6865 1359.9258)" fill="#000000" font-family="'MyriadPro-Bold'" font-size="18">Frisas - Setor 1</text>
        <g>
          <path d="M887.573,1152.326l-1.236-1.236l0.107-2.122c0.201-3.641,0.148-5.549-0.859-6.582c-0.711-0.713-1.692-0.86-2.7,0.147 c-0.752,0.752-1.034,1.786-1.155,2.579l-2.028-0.873c0.147-1.143,0.779-2.58,1.948-3.748c1.987-1.988,4.217-1.908,5.803-0.322 c1.464,1.464,1.586,3.682,1.438,6.085l-0.135,1.478l0.027,0.027l3.305-3.305l1.68,1.68L887.573,1152.326z"></path>
        </g>
        <g>
          <path d="M839.174,1202.726l-2.082-2.082l-3.869,3.869l-1.33-1.33l-2.028-8.611l2.512-2.512l5.118,5.118l1.034-1.034l1.531,1.531 l-1.033,1.035l2.082,2.082L839.174,1202.726z M835.56,1199.112l-1.934-1.935c-0.524-0.524-1.035-1.089-1.572-1.679l-0.04,0.04 c0.282,0.847,0.55,1.599,0.806,2.445l0.752,3.062l0.014,0.041L835.56,1199.112z"></path>
        </g>
        <g>
          <path d="M800.854,1248.483c-0.241,0.215-0.47,0.471-0.766,0.819c-1.679,1.948-1.544,3.694-0.765,4.931l0.039-0.041 c0-0.859,0.363-1.732,1.168-2.539c1.465-1.464,3.735-1.665,5.549,0.148c1.732,1.732,1.827,4.486-0.054,6.367 c-2.337,2.338-5.212,1.746-7.294-0.336c-1.639-1.639-2.404-3.613-2.338-5.453c0.068-1.652,0.793-3.211,2.083-4.635 c0.335-0.417,0.604-0.658,0.806-0.834L800.854,1248.483z M804.494,1256.691c0.712-0.712,0.511-1.827-0.376-2.714 c-0.806-0.806-1.936-1.074-2.809-0.201c-0.551,0.551-0.67,1.344-0.43,1.961c0.055,0.188,0.189,0.377,0.431,0.618 c0.968,0.886,2.243,1.276,3.171,0.349L804.494,1256.691z"></path>
        </g>
        <g>
          <path d="M767.917,1310.222c2.043-2.041,4.07-1.705,5.133-0.645c0.752,0.753,1.088,1.895,0.645,3.197l0.039,0.041 c1.184-0.537,2.661-0.564,3.775,0.551c1.586,1.585,1.33,3.989-0.698,6.018c-2.216,2.217-4.486,1.988-5.669,0.807 c-1.047-1.049-1.168-2.379-0.631-3.748l-0.027-0.027c-1.289,0.402-2.418,0.107-3.184-0.658c-1.477-1.477-1.129-3.789,0.604-5.521 L767.917,1310.222z M769.234,1311.673c-0.698,0.699-0.577,1.518-0.04,2.056c0.591,0.591,1.491,0.443,2.404-0.04 c0.336-0.605,0.322-1.451-0.215-1.988c-0.551-0.551-1.397-0.779-2.137-0.041L769.234,1311.673z M775.494,1317.879 c0.712-0.712,0.726-1.665,0.108-2.282c-0.767-0.767-1.801-0.646-2.809-0.068c-0.482,0.859-0.39,1.733,0.242,2.365 c0.617,0.644,1.691,0.752,2.444-0.001L775.494,1317.879z"></path>
        </g>
        <g>
          <path d="M756.842,1384.036l-0.021,0.031l-0.342,2.586l-2.076-0.78l0.515-3.585l1.292-1.992l10.358,6.724l-1.521,2.343 L756.842,1384.036z"></path>
          <path d="M771.377,1379.993c-1.737,2.677-4.908,2.295-7.852,0.407c-3.011-1.954-4.553-4.745-2.815-7.422 c1.79-2.757,4.974-2.253,7.81-0.411c3.188,2.068,4.564,4.797,2.868,7.41L771.377,1379.993z M769.566,1378.772 c0.609-0.94-0.239-2.217-2.598-3.747c-2.295-1.489-3.825-1.78-4.456-0.81c-0.59,0.909,0.201,2.237,2.543,3.758 c2.38,1.567,3.899,1.738,4.5,0.814L769.566,1378.772z"></path>
        </g>
        <g>
          <path d="M1577.829,1200.346c0.035,0.585,0.266,1.835,0.898,2.827c0.807,1.267,1.824,1.52,2.593,1.029 c1.042-0.664,0.854-1.984,0.181-3.043l-0.633-0.992l1.746-1.113l0.602,0.945c0.521,0.818,1.494,1.639,2.375,1.078 c0.625-0.398,0.773-1.191,0.111-2.232c-0.541-0.85-1.481-1.512-2.004-1.766l1.445-1.619c0.801,0.369,1.971,1.358,2.838,2.721 c1.408,2.211,1.023,4.189-0.402,5.098c-1.104,0.705-2.384,0.641-3.633-0.365l-0.032,0.02c0.571,1.394,0.27,3.005-1.108,3.883 c-1.826,1.164-4.203,0.402-5.888-2.241c-0.857-1.346-1.229-2.708-1.249-3.552L1577.829,1200.346z"></path>
        </g>
        <g>
          <path d="M1620.007,1260.029l-2.572-4.038l-1.729,0.786c0.158,0.215,0.297,0.396,0.461,0.652c0.633,0.993,1.062,2.162,0.992,3.22 c-0.029,1.122-0.589,2.154-1.822,2.939c-1.939,1.236-4.715,0.662-6.5-2.143c-0.807-1.266-1.191-2.507-1.255-3.278l2.112-0.714 c0.062,0.591,0.375,1.72,0.977,2.665c0.644,1.01,1.809,1.776,2.914,1.073c1.09-0.695,1.205-1.962-0.121-4.045 c-0.368-0.576-0.656-0.957-0.984-1.333l5.877-2.798l3.653,5.736L1620.007,1260.029z"></path>
        </g>
        <g>
          <path d="M1650.337,1319.267l-1.523,0.969l-11.627,1.371l-1.644-2.58l11.114-1.044l0.033-0.021l-3.042-4.774l2.003-1.276 L1650.337,1319.267z"></path>
        </g>
        <g>
          <path d="M1648.407,1382.063c0.156,0.352,0.336,0.598,0.674,1.058c0.512,0.733,1.216,1.343,1.957,1.659 c0.889,0.402,1.863,0.413,2.76,0.09l-0.004-0.043c-0.787-0.175-1.488-0.674-2.101-1.635c-1.122-1.763-0.844-4.013,1.19-5.309 c2.035-1.297,4.791-0.754,6.25,1.537c1.705,2.676,0.461,5.247-1.975,6.799c-2.18,1.389-4.188,1.699-5.944,1.242 c-1.546-0.412-2.904-1.484-4.01-3.078c-0.287-0.379-0.537-0.807-0.704-1.105L1648.407,1382.063z M1657.305,1380.474 c-0.521-0.817-1.646-0.957-2.734-0.263c-0.897,0.571-1.351,1.559-0.728,2.536c0.438,0.688,1.029,0.943,1.55,0.949 c0.212-0.022,0.394-0.092,0.696-0.286c1.116-0.688,1.93-1.815,1.227-2.921L1657.305,1380.474z"></path>
        </g>
      </g>
    </g>
    
  </g>
  <g id="Plateia">
    <g id="Plateia_Area_de_Assentos" data-seatarea="true">
     
      <g id="Plateia_Legendas">
          <text transform="matrix(1 0 0 1 1168.5693 1450.5801)" fill="#00000" font-family="'MyriadPro-Bold'" font-size="24">Plateia</text>
         <g>
          <path d="M1208.47,1466.717v4.938h4.768v-4.938h2.888v12.804h-2.888v-5.338h-4.768v5.338h-2.888v-12.804H1208.47z"></path>
          <path d="M1216.325,1513.731c-0.894,0.304-2.584,0.722-4.274,0.722c-2.337,0-4.028-0.589-5.206-1.71 c-1.158-1.12-1.804-2.792-1.804-4.673c0.019-4.256,3.115-6.688,7.314-6.688c1.652,0,2.926,0.323,3.553,0.608l-0.608,2.337 c-0.703-0.323-1.558-0.551-2.964-0.551c-2.412,0-4.255,1.367-4.255,4.141c0,2.66,1.671,4.198,4.046,4.198 c0.646,0,1.178-0.075,1.406-0.171v-2.697h-1.976v-2.261h4.769V1513.731z"></path>
          <path d="M1207.121,1536.316h7.808v2.374h-4.92v2.926h4.597v2.355h-4.597v5.148h-2.888V1536.316z"></path>
          <path d="M1214.653,1578.507h-4.711v3.039h5.262v2.375h-8.149v-12.804h7.884v2.374h-4.996v2.66h4.711V1578.507z"></path>
          <path d="M1205.497,1606.106c1.064-0.189,2.451-0.285,3.895-0.285c2.45,0,4.046,0.399,5.262,1.33 c1.33,0.988,2.165,2.584,2.165,4.863c0,2.451-0.893,4.142-2.108,5.187c-1.349,1.12-3.419,1.652-5.927,1.652 c-1.501,0-2.584-0.095-3.287-0.189V1606.106z M1208.384,1616.536c0.247,0.057,0.665,0.057,1.008,0.057 c2.64,0.02,4.369-1.425,4.369-4.483c0-2.754-1.559-4.065-4.066-4.065c-0.627,0-1.063,0.058-1.311,0.114V1616.536z"></path>
          <path d="M1215.841,1653.179c-0.513,0.247-1.729,0.551-3.268,0.551c-4.427,0-6.706-2.773-6.706-6.44 c0-4.369,3.115-6.781,6.991-6.781c1.5,0,2.641,0.304,3.153,0.569l-0.608,2.28c-0.569-0.247-1.387-0.476-2.432-0.476 c-2.279,0-4.064,1.387-4.064,4.256c0,2.564,1.52,4.179,4.084,4.179c0.893,0,1.843-0.171,2.432-0.418L1215.841,1653.179z"></path>
          <path d="M1206.37,1675.706c0.76-0.152,2.28-0.285,3.743-0.285c1.767,0,2.85,0.171,3.78,0.723c0.893,0.475,1.52,1.349,1.52,2.526 c0,1.121-0.665,2.165-2.09,2.717v0.038c1.463,0.38,2.546,1.5,2.546,3.153c0,1.178-0.532,2.09-1.33,2.717 c-0.931,0.74-2.488,1.158-5.034,1.158c-1.425,0-2.488-0.095-3.135-0.189V1675.706z M1209.239,1680.589h0.949 c1.539,0,2.337-0.627,2.337-1.577c0-0.969-0.74-1.481-2.052-1.481c-0.646,0-1.006,0.038-1.234,0.095V1680.589z M1209.239,1686.269c0.285,0.057,0.627,0.057,1.121,0.057c1.311,0,2.469-0.513,2.469-1.861c0-1.292-1.158-1.805-2.603-1.805 h-0.987V1686.269z"></path>
          <path d="M1208.84,1719.834l-0.893,3.286h-3.002l3.913-12.804h3.781l3.989,12.804h-3.115l-0.988-3.286H1208.84z M1212.089,1717.668l-0.798-2.717c-0.209-0.76-0.438-1.729-0.627-2.47h-0.058c-0.171,0.76-0.38,1.729-0.569,2.47l-0.779,2.717 H1212.089z"></path>
        </g>
        <g>
          <path d="M1213.258,1165.725c-1.823-0.532-3.343-1.103-5.072-1.805c-0.284-0.114-0.589-0.172-0.873-0.19 c-2.907-0.19-5.604-2.317-5.604-6.497c0-3.856,2.432-6.725,6.269-6.725c3.895,0,6.041,2.963,6.041,6.459 c0,2.906-1.349,4.958-3.021,5.718v0.076c0.97,0.285,2.071,0.513,3.078,0.722L1213.258,1165.725z M1207.882,1161.431 c1.957,0,3.078-1.843,3.078-4.351c0-2.336-1.103-4.274-3.078-4.274s-3.115,1.919-3.115,4.332c0,2.45,1.158,4.293,3.097,4.293 H1207.882z"></path>
          <path d="M1201.67,1181.688c0.893-0.152,2.146-0.267,3.913-0.267c1.786,0,3.078,0.342,3.933,1.045 c0.817,0.627,1.349,1.691,1.349,2.944c0,1.273-0.398,2.337-1.158,3.04c-0.988,0.912-2.47,1.349-4.18,1.349 c-0.38,0-0.722-0.019-0.988-0.076v4.598h-2.869V1181.688z M1204.539,1187.5c0.247,0.058,0.551,0.076,0.969,0.076 c1.539,0,2.489-0.778,2.489-2.07c0-1.178-0.798-1.881-2.261-1.881c-0.589,0-0.988,0.038-1.197,0.095V1187.5z"></path>
          <path d="M1207.729,1225.329c-3.78,0-6.021-2.868-6.021-6.516c0-3.838,2.47-6.706,6.23-6.706c3.933,0,6.079,2.944,6.079,6.478 c0,4.218-2.526,6.744-6.269,6.744H1207.729z M1207.863,1223.03c1.956,0,3.077-1.843,3.077-4.351c0-2.298-1.083-4.274-3.077-4.274 c-1.995,0-3.116,1.938-3.116,4.332c0,2.412,1.159,4.293,3.096,4.293H1207.863z"></path>
          <path d="M1202.554,1255.921v-12.804h3.381l2.66,4.692c0.76,1.349,1.501,2.944,2.09,4.388h0.038 c-0.171-1.69-0.229-3.419-0.229-5.357v-3.723h2.66v12.804h-3.04l-2.735-4.939c-0.76-1.387-1.615-3.021-2.223-4.521h-0.076 c0.095,1.71,0.133,3.515,0.133,5.604v3.856H1202.554z"></path>
          <path d="M1211.899,1281.819c-0.057-1.539-0.114-3.382-0.114-5.262h-0.037c-0.418,1.634-0.95,3.457-1.444,4.958l-1.558,4.996 h-2.261l-1.368-4.939c-0.418-1.52-0.836-3.324-1.159-5.015h-0.038c-0.057,1.729-0.133,3.704-0.209,5.3l-0.247,4.863h-2.679 l0.817-12.804h3.856l1.254,4.293c0.417,1.463,0.798,3.059,1.082,4.56h0.076c0.342-1.482,0.779-3.153,1.216-4.598l1.349-4.255h3.8 l0.684,12.804h-2.812L1211.899,1281.819z"></path>
          <path d="M1204.273,1304.717h2.887v10.372h5.092v2.432h-7.979V1304.717z"></path>
          <path d="M1203.275,1335.517h2.868v5.661h0.038c0.285-0.494,0.589-0.95,0.894-1.406l2.887-4.255h3.572l-4.236,5.452l4.445,7.352 h-3.363l-3.153-5.528l-1.083,1.349v4.18h-2.868V1335.517z"></path>
          <path d="M1207.712,1366.316h2.888v8.093c0,3.647-1.748,4.92-4.54,4.92c-0.685,0-1.559-0.114-2.128-0.304l0.323-2.337 c0.399,0.133,0.912,0.228,1.482,0.228c1.216,0,1.976-0.551,1.976-2.526V1366.316z"></path>
          <path d="M1209.308,1397.117v12.804h-2.888v-12.804H1209.308z"></path>
        </g>
        <g>
          <path d="M1206.392,1024.148h-3.458v-2.432h9.841v2.432h-3.496v10.372h-2.887V1024.148z"></path>
          <path d="M1204.073,1066.356c0.76,0.399,1.977,0.798,3.211,0.798c1.329,0,2.032-0.551,2.032-1.405 c0-0.779-0.607-1.254-2.146-1.786c-2.127-0.76-3.533-1.938-3.533-3.818c0-2.185,1.842-3.837,4.844-3.837 c1.463,0,2.508,0.284,3.268,0.646l-0.646,2.317c-0.494-0.247-1.425-0.607-2.66-0.607c-1.254,0-1.861,0.589-1.861,1.234 c0,0.817,0.703,1.178,2.375,1.824c2.261,0.836,3.305,2.014,3.305,3.837c0,2.146-1.633,3.971-5.147,3.971 c-1.463,0-2.907-0.399-3.629-0.798L1204.073,1066.356z"></path>
        </g>
      </g>
    </g>
    
  </g>
</svg>
